%
M48
M72
T01C0.02362
T02C0.04000
T03C0.05118
T04C0.15748
%
T01
X136377Y43139
X165904Y52981
X213148Y45107
X260392Y39202
X280077Y39202
X299762Y39202
X319447Y39202
X337164Y62824
X169841Y147469
X150156Y147469
X130471Y147469
X110786Y147469
X85786Y157312
X84014Y153572
X81849Y150028
X79290Y146879
X76534Y144123
X72991Y141367
X69447Y139202
X65904Y137233
X62164Y135855
X58030Y134674
X53896Y133887
X49762Y133690
X45038Y134083
X40904Y134674
X36967Y135855
X33227Y137430
X29487Y139398
X26140Y141957
X84014Y192745
X81849Y196288
X79290Y199438
X76534Y202194
X72991Y204950
X69447Y207115
X65904Y209083
X62164Y210461
X58030Y211643
X53896Y212430
X49762Y212430
X45432Y212233
X41298Y211643
X37361Y210461
X33621Y208887
X29881Y206918
X26140Y204556
X85786Y189005
X87361Y185068
X88542Y180540
X88936Y176800
X89132Y173060
X88936Y169517
X88542Y165776
X87361Y161249
X93070Y104162
X159999Y123847
T02
X95786Y299044
X125786Y299044
X170589Y299044
X200589Y299044
X245392Y299044
X275392Y299044
X320195Y299044
X350195Y299044
X384408Y130973
X384408Y100973
T03
X86923Y19615
X106923Y19615
X130231Y19615
X150231Y19615
X173538Y19615
X193538Y19615
X216845Y19615
X236845Y19615
X260152Y19615
X280152Y19615
X303459Y19615
X323459Y19615
X45727Y121953
X45727Y101953
X45727Y80615
X45727Y60615
X49664Y231559
X49664Y251559
X49664Y271559
T04
X49762Y320698
X49762Y25422
X396219Y25422
X396219Y320698
M30
