G75*
%MOIN*%
%OFA0B0*%
%FSLAX25Y25*%
%IPPOS*%
%LPD*%
%AMOC8*
5,1,8,0,0,1.08239X$1,22.5*
%
%ADD10C,0.00000*%
%ADD11OC8,0.12400*%
%ADD12C,0.12400*%
%ADD13R,0.07874X0.07874*%
%ADD14R,0.06299X0.03937*%
%ADD15R,0.07087X0.12598*%
%ADD16R,0.07098X0.06299*%
%ADD17C,0.07874*%
%ADD18R,0.12598X0.07087*%
%ADD19R,0.06299X0.15748*%
%ADD20R,0.04331X0.03937*%
%ADD21C,0.01600*%
%ADD22C,0.03962*%
%ADD23C,0.19748*%
D10*
X0026140Y0001800D02*
X0026140Y0344320D01*
X0419841Y0344320D01*
X0419841Y0001800D01*
X0026140Y0001800D01*
X0043857Y0134083D02*
X0043859Y0134152D01*
X0043865Y0134220D01*
X0043875Y0134288D01*
X0043889Y0134355D01*
X0043907Y0134422D01*
X0043928Y0134487D01*
X0043954Y0134551D01*
X0043983Y0134613D01*
X0044015Y0134673D01*
X0044051Y0134732D01*
X0044091Y0134788D01*
X0044133Y0134842D01*
X0044179Y0134893D01*
X0044228Y0134942D01*
X0044279Y0134988D01*
X0044333Y0135030D01*
X0044389Y0135070D01*
X0044447Y0135106D01*
X0044508Y0135138D01*
X0044570Y0135167D01*
X0044634Y0135193D01*
X0044699Y0135214D01*
X0044766Y0135232D01*
X0044833Y0135246D01*
X0044901Y0135256D01*
X0044969Y0135262D01*
X0045038Y0135264D01*
X0045107Y0135262D01*
X0045175Y0135256D01*
X0045243Y0135246D01*
X0045310Y0135232D01*
X0045377Y0135214D01*
X0045442Y0135193D01*
X0045506Y0135167D01*
X0045568Y0135138D01*
X0045628Y0135106D01*
X0045687Y0135070D01*
X0045743Y0135030D01*
X0045797Y0134988D01*
X0045848Y0134942D01*
X0045897Y0134893D01*
X0045943Y0134842D01*
X0045985Y0134788D01*
X0046025Y0134732D01*
X0046061Y0134673D01*
X0046093Y0134613D01*
X0046122Y0134551D01*
X0046148Y0134487D01*
X0046169Y0134422D01*
X0046187Y0134355D01*
X0046201Y0134288D01*
X0046211Y0134220D01*
X0046217Y0134152D01*
X0046219Y0134083D01*
X0046217Y0134014D01*
X0046211Y0133946D01*
X0046201Y0133878D01*
X0046187Y0133811D01*
X0046169Y0133744D01*
X0046148Y0133679D01*
X0046122Y0133615D01*
X0046093Y0133553D01*
X0046061Y0133492D01*
X0046025Y0133434D01*
X0045985Y0133378D01*
X0045943Y0133324D01*
X0045897Y0133273D01*
X0045848Y0133224D01*
X0045797Y0133178D01*
X0045743Y0133136D01*
X0045687Y0133096D01*
X0045629Y0133060D01*
X0045568Y0133028D01*
X0045506Y0132999D01*
X0045442Y0132973D01*
X0045377Y0132952D01*
X0045310Y0132934D01*
X0045243Y0132920D01*
X0045175Y0132910D01*
X0045107Y0132904D01*
X0045038Y0132902D01*
X0044969Y0132904D01*
X0044901Y0132910D01*
X0044833Y0132920D01*
X0044766Y0132934D01*
X0044699Y0132952D01*
X0044634Y0132973D01*
X0044570Y0132999D01*
X0044508Y0133028D01*
X0044447Y0133060D01*
X0044389Y0133096D01*
X0044333Y0133136D01*
X0044279Y0133178D01*
X0044228Y0133224D01*
X0044179Y0133273D01*
X0044133Y0133324D01*
X0044091Y0133378D01*
X0044051Y0133434D01*
X0044015Y0133492D01*
X0043983Y0133553D01*
X0043954Y0133615D01*
X0043928Y0133679D01*
X0043907Y0133744D01*
X0043889Y0133811D01*
X0043875Y0133878D01*
X0043865Y0133946D01*
X0043859Y0134014D01*
X0043857Y0134083D01*
X0039723Y0134674D02*
X0039725Y0134743D01*
X0039731Y0134811D01*
X0039741Y0134879D01*
X0039755Y0134946D01*
X0039773Y0135013D01*
X0039794Y0135078D01*
X0039820Y0135142D01*
X0039849Y0135204D01*
X0039881Y0135264D01*
X0039917Y0135323D01*
X0039957Y0135379D01*
X0039999Y0135433D01*
X0040045Y0135484D01*
X0040094Y0135533D01*
X0040145Y0135579D01*
X0040199Y0135621D01*
X0040255Y0135661D01*
X0040313Y0135697D01*
X0040374Y0135729D01*
X0040436Y0135758D01*
X0040500Y0135784D01*
X0040565Y0135805D01*
X0040632Y0135823D01*
X0040699Y0135837D01*
X0040767Y0135847D01*
X0040835Y0135853D01*
X0040904Y0135855D01*
X0040973Y0135853D01*
X0041041Y0135847D01*
X0041109Y0135837D01*
X0041176Y0135823D01*
X0041243Y0135805D01*
X0041308Y0135784D01*
X0041372Y0135758D01*
X0041434Y0135729D01*
X0041494Y0135697D01*
X0041553Y0135661D01*
X0041609Y0135621D01*
X0041663Y0135579D01*
X0041714Y0135533D01*
X0041763Y0135484D01*
X0041809Y0135433D01*
X0041851Y0135379D01*
X0041891Y0135323D01*
X0041927Y0135264D01*
X0041959Y0135204D01*
X0041988Y0135142D01*
X0042014Y0135078D01*
X0042035Y0135013D01*
X0042053Y0134946D01*
X0042067Y0134879D01*
X0042077Y0134811D01*
X0042083Y0134743D01*
X0042085Y0134674D01*
X0042083Y0134605D01*
X0042077Y0134537D01*
X0042067Y0134469D01*
X0042053Y0134402D01*
X0042035Y0134335D01*
X0042014Y0134270D01*
X0041988Y0134206D01*
X0041959Y0134144D01*
X0041927Y0134083D01*
X0041891Y0134025D01*
X0041851Y0133969D01*
X0041809Y0133915D01*
X0041763Y0133864D01*
X0041714Y0133815D01*
X0041663Y0133769D01*
X0041609Y0133727D01*
X0041553Y0133687D01*
X0041495Y0133651D01*
X0041434Y0133619D01*
X0041372Y0133590D01*
X0041308Y0133564D01*
X0041243Y0133543D01*
X0041176Y0133525D01*
X0041109Y0133511D01*
X0041041Y0133501D01*
X0040973Y0133495D01*
X0040904Y0133493D01*
X0040835Y0133495D01*
X0040767Y0133501D01*
X0040699Y0133511D01*
X0040632Y0133525D01*
X0040565Y0133543D01*
X0040500Y0133564D01*
X0040436Y0133590D01*
X0040374Y0133619D01*
X0040313Y0133651D01*
X0040255Y0133687D01*
X0040199Y0133727D01*
X0040145Y0133769D01*
X0040094Y0133815D01*
X0040045Y0133864D01*
X0039999Y0133915D01*
X0039957Y0133969D01*
X0039917Y0134025D01*
X0039881Y0134083D01*
X0039849Y0134144D01*
X0039820Y0134206D01*
X0039794Y0134270D01*
X0039773Y0134335D01*
X0039755Y0134402D01*
X0039741Y0134469D01*
X0039731Y0134537D01*
X0039725Y0134605D01*
X0039723Y0134674D01*
X0035786Y0135855D02*
X0035788Y0135924D01*
X0035794Y0135992D01*
X0035804Y0136060D01*
X0035818Y0136127D01*
X0035836Y0136194D01*
X0035857Y0136259D01*
X0035883Y0136323D01*
X0035912Y0136385D01*
X0035944Y0136445D01*
X0035980Y0136504D01*
X0036020Y0136560D01*
X0036062Y0136614D01*
X0036108Y0136665D01*
X0036157Y0136714D01*
X0036208Y0136760D01*
X0036262Y0136802D01*
X0036318Y0136842D01*
X0036376Y0136878D01*
X0036437Y0136910D01*
X0036499Y0136939D01*
X0036563Y0136965D01*
X0036628Y0136986D01*
X0036695Y0137004D01*
X0036762Y0137018D01*
X0036830Y0137028D01*
X0036898Y0137034D01*
X0036967Y0137036D01*
X0037036Y0137034D01*
X0037104Y0137028D01*
X0037172Y0137018D01*
X0037239Y0137004D01*
X0037306Y0136986D01*
X0037371Y0136965D01*
X0037435Y0136939D01*
X0037497Y0136910D01*
X0037557Y0136878D01*
X0037616Y0136842D01*
X0037672Y0136802D01*
X0037726Y0136760D01*
X0037777Y0136714D01*
X0037826Y0136665D01*
X0037872Y0136614D01*
X0037914Y0136560D01*
X0037954Y0136504D01*
X0037990Y0136445D01*
X0038022Y0136385D01*
X0038051Y0136323D01*
X0038077Y0136259D01*
X0038098Y0136194D01*
X0038116Y0136127D01*
X0038130Y0136060D01*
X0038140Y0135992D01*
X0038146Y0135924D01*
X0038148Y0135855D01*
X0038146Y0135786D01*
X0038140Y0135718D01*
X0038130Y0135650D01*
X0038116Y0135583D01*
X0038098Y0135516D01*
X0038077Y0135451D01*
X0038051Y0135387D01*
X0038022Y0135325D01*
X0037990Y0135264D01*
X0037954Y0135206D01*
X0037914Y0135150D01*
X0037872Y0135096D01*
X0037826Y0135045D01*
X0037777Y0134996D01*
X0037726Y0134950D01*
X0037672Y0134908D01*
X0037616Y0134868D01*
X0037558Y0134832D01*
X0037497Y0134800D01*
X0037435Y0134771D01*
X0037371Y0134745D01*
X0037306Y0134724D01*
X0037239Y0134706D01*
X0037172Y0134692D01*
X0037104Y0134682D01*
X0037036Y0134676D01*
X0036967Y0134674D01*
X0036898Y0134676D01*
X0036830Y0134682D01*
X0036762Y0134692D01*
X0036695Y0134706D01*
X0036628Y0134724D01*
X0036563Y0134745D01*
X0036499Y0134771D01*
X0036437Y0134800D01*
X0036376Y0134832D01*
X0036318Y0134868D01*
X0036262Y0134908D01*
X0036208Y0134950D01*
X0036157Y0134996D01*
X0036108Y0135045D01*
X0036062Y0135096D01*
X0036020Y0135150D01*
X0035980Y0135206D01*
X0035944Y0135264D01*
X0035912Y0135325D01*
X0035883Y0135387D01*
X0035857Y0135451D01*
X0035836Y0135516D01*
X0035818Y0135583D01*
X0035804Y0135650D01*
X0035794Y0135718D01*
X0035788Y0135786D01*
X0035786Y0135855D01*
X0032046Y0137430D02*
X0032048Y0137499D01*
X0032054Y0137567D01*
X0032064Y0137635D01*
X0032078Y0137702D01*
X0032096Y0137769D01*
X0032117Y0137834D01*
X0032143Y0137898D01*
X0032172Y0137960D01*
X0032204Y0138020D01*
X0032240Y0138079D01*
X0032280Y0138135D01*
X0032322Y0138189D01*
X0032368Y0138240D01*
X0032417Y0138289D01*
X0032468Y0138335D01*
X0032522Y0138377D01*
X0032578Y0138417D01*
X0032636Y0138453D01*
X0032697Y0138485D01*
X0032759Y0138514D01*
X0032823Y0138540D01*
X0032888Y0138561D01*
X0032955Y0138579D01*
X0033022Y0138593D01*
X0033090Y0138603D01*
X0033158Y0138609D01*
X0033227Y0138611D01*
X0033296Y0138609D01*
X0033364Y0138603D01*
X0033432Y0138593D01*
X0033499Y0138579D01*
X0033566Y0138561D01*
X0033631Y0138540D01*
X0033695Y0138514D01*
X0033757Y0138485D01*
X0033817Y0138453D01*
X0033876Y0138417D01*
X0033932Y0138377D01*
X0033986Y0138335D01*
X0034037Y0138289D01*
X0034086Y0138240D01*
X0034132Y0138189D01*
X0034174Y0138135D01*
X0034214Y0138079D01*
X0034250Y0138020D01*
X0034282Y0137960D01*
X0034311Y0137898D01*
X0034337Y0137834D01*
X0034358Y0137769D01*
X0034376Y0137702D01*
X0034390Y0137635D01*
X0034400Y0137567D01*
X0034406Y0137499D01*
X0034408Y0137430D01*
X0034406Y0137361D01*
X0034400Y0137293D01*
X0034390Y0137225D01*
X0034376Y0137158D01*
X0034358Y0137091D01*
X0034337Y0137026D01*
X0034311Y0136962D01*
X0034282Y0136900D01*
X0034250Y0136839D01*
X0034214Y0136781D01*
X0034174Y0136725D01*
X0034132Y0136671D01*
X0034086Y0136620D01*
X0034037Y0136571D01*
X0033986Y0136525D01*
X0033932Y0136483D01*
X0033876Y0136443D01*
X0033818Y0136407D01*
X0033757Y0136375D01*
X0033695Y0136346D01*
X0033631Y0136320D01*
X0033566Y0136299D01*
X0033499Y0136281D01*
X0033432Y0136267D01*
X0033364Y0136257D01*
X0033296Y0136251D01*
X0033227Y0136249D01*
X0033158Y0136251D01*
X0033090Y0136257D01*
X0033022Y0136267D01*
X0032955Y0136281D01*
X0032888Y0136299D01*
X0032823Y0136320D01*
X0032759Y0136346D01*
X0032697Y0136375D01*
X0032636Y0136407D01*
X0032578Y0136443D01*
X0032522Y0136483D01*
X0032468Y0136525D01*
X0032417Y0136571D01*
X0032368Y0136620D01*
X0032322Y0136671D01*
X0032280Y0136725D01*
X0032240Y0136781D01*
X0032204Y0136839D01*
X0032172Y0136900D01*
X0032143Y0136962D01*
X0032117Y0137026D01*
X0032096Y0137091D01*
X0032078Y0137158D01*
X0032064Y0137225D01*
X0032054Y0137293D01*
X0032048Y0137361D01*
X0032046Y0137430D01*
X0028306Y0139398D02*
X0028308Y0139467D01*
X0028314Y0139535D01*
X0028324Y0139603D01*
X0028338Y0139670D01*
X0028356Y0139737D01*
X0028377Y0139802D01*
X0028403Y0139866D01*
X0028432Y0139928D01*
X0028464Y0139988D01*
X0028500Y0140047D01*
X0028540Y0140103D01*
X0028582Y0140157D01*
X0028628Y0140208D01*
X0028677Y0140257D01*
X0028728Y0140303D01*
X0028782Y0140345D01*
X0028838Y0140385D01*
X0028896Y0140421D01*
X0028957Y0140453D01*
X0029019Y0140482D01*
X0029083Y0140508D01*
X0029148Y0140529D01*
X0029215Y0140547D01*
X0029282Y0140561D01*
X0029350Y0140571D01*
X0029418Y0140577D01*
X0029487Y0140579D01*
X0029556Y0140577D01*
X0029624Y0140571D01*
X0029692Y0140561D01*
X0029759Y0140547D01*
X0029826Y0140529D01*
X0029891Y0140508D01*
X0029955Y0140482D01*
X0030017Y0140453D01*
X0030077Y0140421D01*
X0030136Y0140385D01*
X0030192Y0140345D01*
X0030246Y0140303D01*
X0030297Y0140257D01*
X0030346Y0140208D01*
X0030392Y0140157D01*
X0030434Y0140103D01*
X0030474Y0140047D01*
X0030510Y0139988D01*
X0030542Y0139928D01*
X0030571Y0139866D01*
X0030597Y0139802D01*
X0030618Y0139737D01*
X0030636Y0139670D01*
X0030650Y0139603D01*
X0030660Y0139535D01*
X0030666Y0139467D01*
X0030668Y0139398D01*
X0030666Y0139329D01*
X0030660Y0139261D01*
X0030650Y0139193D01*
X0030636Y0139126D01*
X0030618Y0139059D01*
X0030597Y0138994D01*
X0030571Y0138930D01*
X0030542Y0138868D01*
X0030510Y0138807D01*
X0030474Y0138749D01*
X0030434Y0138693D01*
X0030392Y0138639D01*
X0030346Y0138588D01*
X0030297Y0138539D01*
X0030246Y0138493D01*
X0030192Y0138451D01*
X0030136Y0138411D01*
X0030078Y0138375D01*
X0030017Y0138343D01*
X0029955Y0138314D01*
X0029891Y0138288D01*
X0029826Y0138267D01*
X0029759Y0138249D01*
X0029692Y0138235D01*
X0029624Y0138225D01*
X0029556Y0138219D01*
X0029487Y0138217D01*
X0029418Y0138219D01*
X0029350Y0138225D01*
X0029282Y0138235D01*
X0029215Y0138249D01*
X0029148Y0138267D01*
X0029083Y0138288D01*
X0029019Y0138314D01*
X0028957Y0138343D01*
X0028896Y0138375D01*
X0028838Y0138411D01*
X0028782Y0138451D01*
X0028728Y0138493D01*
X0028677Y0138539D01*
X0028628Y0138588D01*
X0028582Y0138639D01*
X0028540Y0138693D01*
X0028500Y0138749D01*
X0028464Y0138807D01*
X0028432Y0138868D01*
X0028403Y0138930D01*
X0028377Y0138994D01*
X0028356Y0139059D01*
X0028338Y0139126D01*
X0028324Y0139193D01*
X0028314Y0139261D01*
X0028308Y0139329D01*
X0028306Y0139398D01*
X0024959Y0141957D02*
X0024961Y0142026D01*
X0024967Y0142094D01*
X0024977Y0142162D01*
X0024991Y0142229D01*
X0025009Y0142296D01*
X0025030Y0142361D01*
X0025056Y0142425D01*
X0025085Y0142487D01*
X0025117Y0142547D01*
X0025153Y0142606D01*
X0025193Y0142662D01*
X0025235Y0142716D01*
X0025281Y0142767D01*
X0025330Y0142816D01*
X0025381Y0142862D01*
X0025435Y0142904D01*
X0025491Y0142944D01*
X0025549Y0142980D01*
X0025610Y0143012D01*
X0025672Y0143041D01*
X0025736Y0143067D01*
X0025801Y0143088D01*
X0025868Y0143106D01*
X0025935Y0143120D01*
X0026003Y0143130D01*
X0026071Y0143136D01*
X0026140Y0143138D01*
X0026209Y0143136D01*
X0026277Y0143130D01*
X0026345Y0143120D01*
X0026412Y0143106D01*
X0026479Y0143088D01*
X0026544Y0143067D01*
X0026608Y0143041D01*
X0026670Y0143012D01*
X0026730Y0142980D01*
X0026789Y0142944D01*
X0026845Y0142904D01*
X0026899Y0142862D01*
X0026950Y0142816D01*
X0026999Y0142767D01*
X0027045Y0142716D01*
X0027087Y0142662D01*
X0027127Y0142606D01*
X0027163Y0142547D01*
X0027195Y0142487D01*
X0027224Y0142425D01*
X0027250Y0142361D01*
X0027271Y0142296D01*
X0027289Y0142229D01*
X0027303Y0142162D01*
X0027313Y0142094D01*
X0027319Y0142026D01*
X0027321Y0141957D01*
X0027319Y0141888D01*
X0027313Y0141820D01*
X0027303Y0141752D01*
X0027289Y0141685D01*
X0027271Y0141618D01*
X0027250Y0141553D01*
X0027224Y0141489D01*
X0027195Y0141427D01*
X0027163Y0141366D01*
X0027127Y0141308D01*
X0027087Y0141252D01*
X0027045Y0141198D01*
X0026999Y0141147D01*
X0026950Y0141098D01*
X0026899Y0141052D01*
X0026845Y0141010D01*
X0026789Y0140970D01*
X0026731Y0140934D01*
X0026670Y0140902D01*
X0026608Y0140873D01*
X0026544Y0140847D01*
X0026479Y0140826D01*
X0026412Y0140808D01*
X0026345Y0140794D01*
X0026277Y0140784D01*
X0026209Y0140778D01*
X0026140Y0140776D01*
X0026071Y0140778D01*
X0026003Y0140784D01*
X0025935Y0140794D01*
X0025868Y0140808D01*
X0025801Y0140826D01*
X0025736Y0140847D01*
X0025672Y0140873D01*
X0025610Y0140902D01*
X0025549Y0140934D01*
X0025491Y0140970D01*
X0025435Y0141010D01*
X0025381Y0141052D01*
X0025330Y0141098D01*
X0025281Y0141147D01*
X0025235Y0141198D01*
X0025193Y0141252D01*
X0025153Y0141308D01*
X0025117Y0141366D01*
X0025085Y0141427D01*
X0025056Y0141489D01*
X0025030Y0141553D01*
X0025009Y0141618D01*
X0024991Y0141685D01*
X0024977Y0141752D01*
X0024967Y0141820D01*
X0024961Y0141888D01*
X0024959Y0141957D01*
X0048581Y0133690D02*
X0048583Y0133759D01*
X0048589Y0133827D01*
X0048599Y0133895D01*
X0048613Y0133962D01*
X0048631Y0134029D01*
X0048652Y0134094D01*
X0048678Y0134158D01*
X0048707Y0134220D01*
X0048739Y0134280D01*
X0048775Y0134339D01*
X0048815Y0134395D01*
X0048857Y0134449D01*
X0048903Y0134500D01*
X0048952Y0134549D01*
X0049003Y0134595D01*
X0049057Y0134637D01*
X0049113Y0134677D01*
X0049171Y0134713D01*
X0049232Y0134745D01*
X0049294Y0134774D01*
X0049358Y0134800D01*
X0049423Y0134821D01*
X0049490Y0134839D01*
X0049557Y0134853D01*
X0049625Y0134863D01*
X0049693Y0134869D01*
X0049762Y0134871D01*
X0049831Y0134869D01*
X0049899Y0134863D01*
X0049967Y0134853D01*
X0050034Y0134839D01*
X0050101Y0134821D01*
X0050166Y0134800D01*
X0050230Y0134774D01*
X0050292Y0134745D01*
X0050352Y0134713D01*
X0050411Y0134677D01*
X0050467Y0134637D01*
X0050521Y0134595D01*
X0050572Y0134549D01*
X0050621Y0134500D01*
X0050667Y0134449D01*
X0050709Y0134395D01*
X0050749Y0134339D01*
X0050785Y0134280D01*
X0050817Y0134220D01*
X0050846Y0134158D01*
X0050872Y0134094D01*
X0050893Y0134029D01*
X0050911Y0133962D01*
X0050925Y0133895D01*
X0050935Y0133827D01*
X0050941Y0133759D01*
X0050943Y0133690D01*
X0050941Y0133621D01*
X0050935Y0133553D01*
X0050925Y0133485D01*
X0050911Y0133418D01*
X0050893Y0133351D01*
X0050872Y0133286D01*
X0050846Y0133222D01*
X0050817Y0133160D01*
X0050785Y0133099D01*
X0050749Y0133041D01*
X0050709Y0132985D01*
X0050667Y0132931D01*
X0050621Y0132880D01*
X0050572Y0132831D01*
X0050521Y0132785D01*
X0050467Y0132743D01*
X0050411Y0132703D01*
X0050353Y0132667D01*
X0050292Y0132635D01*
X0050230Y0132606D01*
X0050166Y0132580D01*
X0050101Y0132559D01*
X0050034Y0132541D01*
X0049967Y0132527D01*
X0049899Y0132517D01*
X0049831Y0132511D01*
X0049762Y0132509D01*
X0049693Y0132511D01*
X0049625Y0132517D01*
X0049557Y0132527D01*
X0049490Y0132541D01*
X0049423Y0132559D01*
X0049358Y0132580D01*
X0049294Y0132606D01*
X0049232Y0132635D01*
X0049171Y0132667D01*
X0049113Y0132703D01*
X0049057Y0132743D01*
X0049003Y0132785D01*
X0048952Y0132831D01*
X0048903Y0132880D01*
X0048857Y0132931D01*
X0048815Y0132985D01*
X0048775Y0133041D01*
X0048739Y0133099D01*
X0048707Y0133160D01*
X0048678Y0133222D01*
X0048652Y0133286D01*
X0048631Y0133351D01*
X0048613Y0133418D01*
X0048599Y0133485D01*
X0048589Y0133553D01*
X0048583Y0133621D01*
X0048581Y0133690D01*
X0052715Y0133887D02*
X0052717Y0133956D01*
X0052723Y0134024D01*
X0052733Y0134092D01*
X0052747Y0134159D01*
X0052765Y0134226D01*
X0052786Y0134291D01*
X0052812Y0134355D01*
X0052841Y0134417D01*
X0052873Y0134477D01*
X0052909Y0134536D01*
X0052949Y0134592D01*
X0052991Y0134646D01*
X0053037Y0134697D01*
X0053086Y0134746D01*
X0053137Y0134792D01*
X0053191Y0134834D01*
X0053247Y0134874D01*
X0053305Y0134910D01*
X0053366Y0134942D01*
X0053428Y0134971D01*
X0053492Y0134997D01*
X0053557Y0135018D01*
X0053624Y0135036D01*
X0053691Y0135050D01*
X0053759Y0135060D01*
X0053827Y0135066D01*
X0053896Y0135068D01*
X0053965Y0135066D01*
X0054033Y0135060D01*
X0054101Y0135050D01*
X0054168Y0135036D01*
X0054235Y0135018D01*
X0054300Y0134997D01*
X0054364Y0134971D01*
X0054426Y0134942D01*
X0054486Y0134910D01*
X0054545Y0134874D01*
X0054601Y0134834D01*
X0054655Y0134792D01*
X0054706Y0134746D01*
X0054755Y0134697D01*
X0054801Y0134646D01*
X0054843Y0134592D01*
X0054883Y0134536D01*
X0054919Y0134477D01*
X0054951Y0134417D01*
X0054980Y0134355D01*
X0055006Y0134291D01*
X0055027Y0134226D01*
X0055045Y0134159D01*
X0055059Y0134092D01*
X0055069Y0134024D01*
X0055075Y0133956D01*
X0055077Y0133887D01*
X0055075Y0133818D01*
X0055069Y0133750D01*
X0055059Y0133682D01*
X0055045Y0133615D01*
X0055027Y0133548D01*
X0055006Y0133483D01*
X0054980Y0133419D01*
X0054951Y0133357D01*
X0054919Y0133296D01*
X0054883Y0133238D01*
X0054843Y0133182D01*
X0054801Y0133128D01*
X0054755Y0133077D01*
X0054706Y0133028D01*
X0054655Y0132982D01*
X0054601Y0132940D01*
X0054545Y0132900D01*
X0054487Y0132864D01*
X0054426Y0132832D01*
X0054364Y0132803D01*
X0054300Y0132777D01*
X0054235Y0132756D01*
X0054168Y0132738D01*
X0054101Y0132724D01*
X0054033Y0132714D01*
X0053965Y0132708D01*
X0053896Y0132706D01*
X0053827Y0132708D01*
X0053759Y0132714D01*
X0053691Y0132724D01*
X0053624Y0132738D01*
X0053557Y0132756D01*
X0053492Y0132777D01*
X0053428Y0132803D01*
X0053366Y0132832D01*
X0053305Y0132864D01*
X0053247Y0132900D01*
X0053191Y0132940D01*
X0053137Y0132982D01*
X0053086Y0133028D01*
X0053037Y0133077D01*
X0052991Y0133128D01*
X0052949Y0133182D01*
X0052909Y0133238D01*
X0052873Y0133296D01*
X0052841Y0133357D01*
X0052812Y0133419D01*
X0052786Y0133483D01*
X0052765Y0133548D01*
X0052747Y0133615D01*
X0052733Y0133682D01*
X0052723Y0133750D01*
X0052717Y0133818D01*
X0052715Y0133887D01*
X0056849Y0134674D02*
X0056851Y0134743D01*
X0056857Y0134811D01*
X0056867Y0134879D01*
X0056881Y0134946D01*
X0056899Y0135013D01*
X0056920Y0135078D01*
X0056946Y0135142D01*
X0056975Y0135204D01*
X0057007Y0135264D01*
X0057043Y0135323D01*
X0057083Y0135379D01*
X0057125Y0135433D01*
X0057171Y0135484D01*
X0057220Y0135533D01*
X0057271Y0135579D01*
X0057325Y0135621D01*
X0057381Y0135661D01*
X0057439Y0135697D01*
X0057500Y0135729D01*
X0057562Y0135758D01*
X0057626Y0135784D01*
X0057691Y0135805D01*
X0057758Y0135823D01*
X0057825Y0135837D01*
X0057893Y0135847D01*
X0057961Y0135853D01*
X0058030Y0135855D01*
X0058099Y0135853D01*
X0058167Y0135847D01*
X0058235Y0135837D01*
X0058302Y0135823D01*
X0058369Y0135805D01*
X0058434Y0135784D01*
X0058498Y0135758D01*
X0058560Y0135729D01*
X0058620Y0135697D01*
X0058679Y0135661D01*
X0058735Y0135621D01*
X0058789Y0135579D01*
X0058840Y0135533D01*
X0058889Y0135484D01*
X0058935Y0135433D01*
X0058977Y0135379D01*
X0059017Y0135323D01*
X0059053Y0135264D01*
X0059085Y0135204D01*
X0059114Y0135142D01*
X0059140Y0135078D01*
X0059161Y0135013D01*
X0059179Y0134946D01*
X0059193Y0134879D01*
X0059203Y0134811D01*
X0059209Y0134743D01*
X0059211Y0134674D01*
X0059209Y0134605D01*
X0059203Y0134537D01*
X0059193Y0134469D01*
X0059179Y0134402D01*
X0059161Y0134335D01*
X0059140Y0134270D01*
X0059114Y0134206D01*
X0059085Y0134144D01*
X0059053Y0134083D01*
X0059017Y0134025D01*
X0058977Y0133969D01*
X0058935Y0133915D01*
X0058889Y0133864D01*
X0058840Y0133815D01*
X0058789Y0133769D01*
X0058735Y0133727D01*
X0058679Y0133687D01*
X0058621Y0133651D01*
X0058560Y0133619D01*
X0058498Y0133590D01*
X0058434Y0133564D01*
X0058369Y0133543D01*
X0058302Y0133525D01*
X0058235Y0133511D01*
X0058167Y0133501D01*
X0058099Y0133495D01*
X0058030Y0133493D01*
X0057961Y0133495D01*
X0057893Y0133501D01*
X0057825Y0133511D01*
X0057758Y0133525D01*
X0057691Y0133543D01*
X0057626Y0133564D01*
X0057562Y0133590D01*
X0057500Y0133619D01*
X0057439Y0133651D01*
X0057381Y0133687D01*
X0057325Y0133727D01*
X0057271Y0133769D01*
X0057220Y0133815D01*
X0057171Y0133864D01*
X0057125Y0133915D01*
X0057083Y0133969D01*
X0057043Y0134025D01*
X0057007Y0134083D01*
X0056975Y0134144D01*
X0056946Y0134206D01*
X0056920Y0134270D01*
X0056899Y0134335D01*
X0056881Y0134402D01*
X0056867Y0134469D01*
X0056857Y0134537D01*
X0056851Y0134605D01*
X0056849Y0134674D01*
X0060983Y0135855D02*
X0060985Y0135924D01*
X0060991Y0135992D01*
X0061001Y0136060D01*
X0061015Y0136127D01*
X0061033Y0136194D01*
X0061054Y0136259D01*
X0061080Y0136323D01*
X0061109Y0136385D01*
X0061141Y0136445D01*
X0061177Y0136504D01*
X0061217Y0136560D01*
X0061259Y0136614D01*
X0061305Y0136665D01*
X0061354Y0136714D01*
X0061405Y0136760D01*
X0061459Y0136802D01*
X0061515Y0136842D01*
X0061573Y0136878D01*
X0061634Y0136910D01*
X0061696Y0136939D01*
X0061760Y0136965D01*
X0061825Y0136986D01*
X0061892Y0137004D01*
X0061959Y0137018D01*
X0062027Y0137028D01*
X0062095Y0137034D01*
X0062164Y0137036D01*
X0062233Y0137034D01*
X0062301Y0137028D01*
X0062369Y0137018D01*
X0062436Y0137004D01*
X0062503Y0136986D01*
X0062568Y0136965D01*
X0062632Y0136939D01*
X0062694Y0136910D01*
X0062754Y0136878D01*
X0062813Y0136842D01*
X0062869Y0136802D01*
X0062923Y0136760D01*
X0062974Y0136714D01*
X0063023Y0136665D01*
X0063069Y0136614D01*
X0063111Y0136560D01*
X0063151Y0136504D01*
X0063187Y0136445D01*
X0063219Y0136385D01*
X0063248Y0136323D01*
X0063274Y0136259D01*
X0063295Y0136194D01*
X0063313Y0136127D01*
X0063327Y0136060D01*
X0063337Y0135992D01*
X0063343Y0135924D01*
X0063345Y0135855D01*
X0063343Y0135786D01*
X0063337Y0135718D01*
X0063327Y0135650D01*
X0063313Y0135583D01*
X0063295Y0135516D01*
X0063274Y0135451D01*
X0063248Y0135387D01*
X0063219Y0135325D01*
X0063187Y0135264D01*
X0063151Y0135206D01*
X0063111Y0135150D01*
X0063069Y0135096D01*
X0063023Y0135045D01*
X0062974Y0134996D01*
X0062923Y0134950D01*
X0062869Y0134908D01*
X0062813Y0134868D01*
X0062755Y0134832D01*
X0062694Y0134800D01*
X0062632Y0134771D01*
X0062568Y0134745D01*
X0062503Y0134724D01*
X0062436Y0134706D01*
X0062369Y0134692D01*
X0062301Y0134682D01*
X0062233Y0134676D01*
X0062164Y0134674D01*
X0062095Y0134676D01*
X0062027Y0134682D01*
X0061959Y0134692D01*
X0061892Y0134706D01*
X0061825Y0134724D01*
X0061760Y0134745D01*
X0061696Y0134771D01*
X0061634Y0134800D01*
X0061573Y0134832D01*
X0061515Y0134868D01*
X0061459Y0134908D01*
X0061405Y0134950D01*
X0061354Y0134996D01*
X0061305Y0135045D01*
X0061259Y0135096D01*
X0061217Y0135150D01*
X0061177Y0135206D01*
X0061141Y0135264D01*
X0061109Y0135325D01*
X0061080Y0135387D01*
X0061054Y0135451D01*
X0061033Y0135516D01*
X0061015Y0135583D01*
X0061001Y0135650D01*
X0060991Y0135718D01*
X0060985Y0135786D01*
X0060983Y0135855D01*
X0064723Y0137233D02*
X0064725Y0137302D01*
X0064731Y0137370D01*
X0064741Y0137438D01*
X0064755Y0137505D01*
X0064773Y0137572D01*
X0064794Y0137637D01*
X0064820Y0137701D01*
X0064849Y0137763D01*
X0064881Y0137823D01*
X0064917Y0137882D01*
X0064957Y0137938D01*
X0064999Y0137992D01*
X0065045Y0138043D01*
X0065094Y0138092D01*
X0065145Y0138138D01*
X0065199Y0138180D01*
X0065255Y0138220D01*
X0065313Y0138256D01*
X0065374Y0138288D01*
X0065436Y0138317D01*
X0065500Y0138343D01*
X0065565Y0138364D01*
X0065632Y0138382D01*
X0065699Y0138396D01*
X0065767Y0138406D01*
X0065835Y0138412D01*
X0065904Y0138414D01*
X0065973Y0138412D01*
X0066041Y0138406D01*
X0066109Y0138396D01*
X0066176Y0138382D01*
X0066243Y0138364D01*
X0066308Y0138343D01*
X0066372Y0138317D01*
X0066434Y0138288D01*
X0066494Y0138256D01*
X0066553Y0138220D01*
X0066609Y0138180D01*
X0066663Y0138138D01*
X0066714Y0138092D01*
X0066763Y0138043D01*
X0066809Y0137992D01*
X0066851Y0137938D01*
X0066891Y0137882D01*
X0066927Y0137823D01*
X0066959Y0137763D01*
X0066988Y0137701D01*
X0067014Y0137637D01*
X0067035Y0137572D01*
X0067053Y0137505D01*
X0067067Y0137438D01*
X0067077Y0137370D01*
X0067083Y0137302D01*
X0067085Y0137233D01*
X0067083Y0137164D01*
X0067077Y0137096D01*
X0067067Y0137028D01*
X0067053Y0136961D01*
X0067035Y0136894D01*
X0067014Y0136829D01*
X0066988Y0136765D01*
X0066959Y0136703D01*
X0066927Y0136642D01*
X0066891Y0136584D01*
X0066851Y0136528D01*
X0066809Y0136474D01*
X0066763Y0136423D01*
X0066714Y0136374D01*
X0066663Y0136328D01*
X0066609Y0136286D01*
X0066553Y0136246D01*
X0066495Y0136210D01*
X0066434Y0136178D01*
X0066372Y0136149D01*
X0066308Y0136123D01*
X0066243Y0136102D01*
X0066176Y0136084D01*
X0066109Y0136070D01*
X0066041Y0136060D01*
X0065973Y0136054D01*
X0065904Y0136052D01*
X0065835Y0136054D01*
X0065767Y0136060D01*
X0065699Y0136070D01*
X0065632Y0136084D01*
X0065565Y0136102D01*
X0065500Y0136123D01*
X0065436Y0136149D01*
X0065374Y0136178D01*
X0065313Y0136210D01*
X0065255Y0136246D01*
X0065199Y0136286D01*
X0065145Y0136328D01*
X0065094Y0136374D01*
X0065045Y0136423D01*
X0064999Y0136474D01*
X0064957Y0136528D01*
X0064917Y0136584D01*
X0064881Y0136642D01*
X0064849Y0136703D01*
X0064820Y0136765D01*
X0064794Y0136829D01*
X0064773Y0136894D01*
X0064755Y0136961D01*
X0064741Y0137028D01*
X0064731Y0137096D01*
X0064725Y0137164D01*
X0064723Y0137233D01*
X0068266Y0139202D02*
X0068268Y0139271D01*
X0068274Y0139339D01*
X0068284Y0139407D01*
X0068298Y0139474D01*
X0068316Y0139541D01*
X0068337Y0139606D01*
X0068363Y0139670D01*
X0068392Y0139732D01*
X0068424Y0139792D01*
X0068460Y0139851D01*
X0068500Y0139907D01*
X0068542Y0139961D01*
X0068588Y0140012D01*
X0068637Y0140061D01*
X0068688Y0140107D01*
X0068742Y0140149D01*
X0068798Y0140189D01*
X0068856Y0140225D01*
X0068917Y0140257D01*
X0068979Y0140286D01*
X0069043Y0140312D01*
X0069108Y0140333D01*
X0069175Y0140351D01*
X0069242Y0140365D01*
X0069310Y0140375D01*
X0069378Y0140381D01*
X0069447Y0140383D01*
X0069516Y0140381D01*
X0069584Y0140375D01*
X0069652Y0140365D01*
X0069719Y0140351D01*
X0069786Y0140333D01*
X0069851Y0140312D01*
X0069915Y0140286D01*
X0069977Y0140257D01*
X0070037Y0140225D01*
X0070096Y0140189D01*
X0070152Y0140149D01*
X0070206Y0140107D01*
X0070257Y0140061D01*
X0070306Y0140012D01*
X0070352Y0139961D01*
X0070394Y0139907D01*
X0070434Y0139851D01*
X0070470Y0139792D01*
X0070502Y0139732D01*
X0070531Y0139670D01*
X0070557Y0139606D01*
X0070578Y0139541D01*
X0070596Y0139474D01*
X0070610Y0139407D01*
X0070620Y0139339D01*
X0070626Y0139271D01*
X0070628Y0139202D01*
X0070626Y0139133D01*
X0070620Y0139065D01*
X0070610Y0138997D01*
X0070596Y0138930D01*
X0070578Y0138863D01*
X0070557Y0138798D01*
X0070531Y0138734D01*
X0070502Y0138672D01*
X0070470Y0138611D01*
X0070434Y0138553D01*
X0070394Y0138497D01*
X0070352Y0138443D01*
X0070306Y0138392D01*
X0070257Y0138343D01*
X0070206Y0138297D01*
X0070152Y0138255D01*
X0070096Y0138215D01*
X0070038Y0138179D01*
X0069977Y0138147D01*
X0069915Y0138118D01*
X0069851Y0138092D01*
X0069786Y0138071D01*
X0069719Y0138053D01*
X0069652Y0138039D01*
X0069584Y0138029D01*
X0069516Y0138023D01*
X0069447Y0138021D01*
X0069378Y0138023D01*
X0069310Y0138029D01*
X0069242Y0138039D01*
X0069175Y0138053D01*
X0069108Y0138071D01*
X0069043Y0138092D01*
X0068979Y0138118D01*
X0068917Y0138147D01*
X0068856Y0138179D01*
X0068798Y0138215D01*
X0068742Y0138255D01*
X0068688Y0138297D01*
X0068637Y0138343D01*
X0068588Y0138392D01*
X0068542Y0138443D01*
X0068500Y0138497D01*
X0068460Y0138553D01*
X0068424Y0138611D01*
X0068392Y0138672D01*
X0068363Y0138734D01*
X0068337Y0138798D01*
X0068316Y0138863D01*
X0068298Y0138930D01*
X0068284Y0138997D01*
X0068274Y0139065D01*
X0068268Y0139133D01*
X0068266Y0139202D01*
X0071810Y0141367D02*
X0071812Y0141436D01*
X0071818Y0141504D01*
X0071828Y0141572D01*
X0071842Y0141639D01*
X0071860Y0141706D01*
X0071881Y0141771D01*
X0071907Y0141835D01*
X0071936Y0141897D01*
X0071968Y0141957D01*
X0072004Y0142016D01*
X0072044Y0142072D01*
X0072086Y0142126D01*
X0072132Y0142177D01*
X0072181Y0142226D01*
X0072232Y0142272D01*
X0072286Y0142314D01*
X0072342Y0142354D01*
X0072400Y0142390D01*
X0072461Y0142422D01*
X0072523Y0142451D01*
X0072587Y0142477D01*
X0072652Y0142498D01*
X0072719Y0142516D01*
X0072786Y0142530D01*
X0072854Y0142540D01*
X0072922Y0142546D01*
X0072991Y0142548D01*
X0073060Y0142546D01*
X0073128Y0142540D01*
X0073196Y0142530D01*
X0073263Y0142516D01*
X0073330Y0142498D01*
X0073395Y0142477D01*
X0073459Y0142451D01*
X0073521Y0142422D01*
X0073581Y0142390D01*
X0073640Y0142354D01*
X0073696Y0142314D01*
X0073750Y0142272D01*
X0073801Y0142226D01*
X0073850Y0142177D01*
X0073896Y0142126D01*
X0073938Y0142072D01*
X0073978Y0142016D01*
X0074014Y0141957D01*
X0074046Y0141897D01*
X0074075Y0141835D01*
X0074101Y0141771D01*
X0074122Y0141706D01*
X0074140Y0141639D01*
X0074154Y0141572D01*
X0074164Y0141504D01*
X0074170Y0141436D01*
X0074172Y0141367D01*
X0074170Y0141298D01*
X0074164Y0141230D01*
X0074154Y0141162D01*
X0074140Y0141095D01*
X0074122Y0141028D01*
X0074101Y0140963D01*
X0074075Y0140899D01*
X0074046Y0140837D01*
X0074014Y0140776D01*
X0073978Y0140718D01*
X0073938Y0140662D01*
X0073896Y0140608D01*
X0073850Y0140557D01*
X0073801Y0140508D01*
X0073750Y0140462D01*
X0073696Y0140420D01*
X0073640Y0140380D01*
X0073582Y0140344D01*
X0073521Y0140312D01*
X0073459Y0140283D01*
X0073395Y0140257D01*
X0073330Y0140236D01*
X0073263Y0140218D01*
X0073196Y0140204D01*
X0073128Y0140194D01*
X0073060Y0140188D01*
X0072991Y0140186D01*
X0072922Y0140188D01*
X0072854Y0140194D01*
X0072786Y0140204D01*
X0072719Y0140218D01*
X0072652Y0140236D01*
X0072587Y0140257D01*
X0072523Y0140283D01*
X0072461Y0140312D01*
X0072400Y0140344D01*
X0072342Y0140380D01*
X0072286Y0140420D01*
X0072232Y0140462D01*
X0072181Y0140508D01*
X0072132Y0140557D01*
X0072086Y0140608D01*
X0072044Y0140662D01*
X0072004Y0140718D01*
X0071968Y0140776D01*
X0071936Y0140837D01*
X0071907Y0140899D01*
X0071881Y0140963D01*
X0071860Y0141028D01*
X0071842Y0141095D01*
X0071828Y0141162D01*
X0071818Y0141230D01*
X0071812Y0141298D01*
X0071810Y0141367D01*
X0075353Y0144123D02*
X0075355Y0144192D01*
X0075361Y0144260D01*
X0075371Y0144328D01*
X0075385Y0144395D01*
X0075403Y0144462D01*
X0075424Y0144527D01*
X0075450Y0144591D01*
X0075479Y0144653D01*
X0075511Y0144713D01*
X0075547Y0144772D01*
X0075587Y0144828D01*
X0075629Y0144882D01*
X0075675Y0144933D01*
X0075724Y0144982D01*
X0075775Y0145028D01*
X0075829Y0145070D01*
X0075885Y0145110D01*
X0075943Y0145146D01*
X0076004Y0145178D01*
X0076066Y0145207D01*
X0076130Y0145233D01*
X0076195Y0145254D01*
X0076262Y0145272D01*
X0076329Y0145286D01*
X0076397Y0145296D01*
X0076465Y0145302D01*
X0076534Y0145304D01*
X0076603Y0145302D01*
X0076671Y0145296D01*
X0076739Y0145286D01*
X0076806Y0145272D01*
X0076873Y0145254D01*
X0076938Y0145233D01*
X0077002Y0145207D01*
X0077064Y0145178D01*
X0077124Y0145146D01*
X0077183Y0145110D01*
X0077239Y0145070D01*
X0077293Y0145028D01*
X0077344Y0144982D01*
X0077393Y0144933D01*
X0077439Y0144882D01*
X0077481Y0144828D01*
X0077521Y0144772D01*
X0077557Y0144713D01*
X0077589Y0144653D01*
X0077618Y0144591D01*
X0077644Y0144527D01*
X0077665Y0144462D01*
X0077683Y0144395D01*
X0077697Y0144328D01*
X0077707Y0144260D01*
X0077713Y0144192D01*
X0077715Y0144123D01*
X0077713Y0144054D01*
X0077707Y0143986D01*
X0077697Y0143918D01*
X0077683Y0143851D01*
X0077665Y0143784D01*
X0077644Y0143719D01*
X0077618Y0143655D01*
X0077589Y0143593D01*
X0077557Y0143532D01*
X0077521Y0143474D01*
X0077481Y0143418D01*
X0077439Y0143364D01*
X0077393Y0143313D01*
X0077344Y0143264D01*
X0077293Y0143218D01*
X0077239Y0143176D01*
X0077183Y0143136D01*
X0077125Y0143100D01*
X0077064Y0143068D01*
X0077002Y0143039D01*
X0076938Y0143013D01*
X0076873Y0142992D01*
X0076806Y0142974D01*
X0076739Y0142960D01*
X0076671Y0142950D01*
X0076603Y0142944D01*
X0076534Y0142942D01*
X0076465Y0142944D01*
X0076397Y0142950D01*
X0076329Y0142960D01*
X0076262Y0142974D01*
X0076195Y0142992D01*
X0076130Y0143013D01*
X0076066Y0143039D01*
X0076004Y0143068D01*
X0075943Y0143100D01*
X0075885Y0143136D01*
X0075829Y0143176D01*
X0075775Y0143218D01*
X0075724Y0143264D01*
X0075675Y0143313D01*
X0075629Y0143364D01*
X0075587Y0143418D01*
X0075547Y0143474D01*
X0075511Y0143532D01*
X0075479Y0143593D01*
X0075450Y0143655D01*
X0075424Y0143719D01*
X0075403Y0143784D01*
X0075385Y0143851D01*
X0075371Y0143918D01*
X0075361Y0143986D01*
X0075355Y0144054D01*
X0075353Y0144123D01*
X0078109Y0146879D02*
X0078111Y0146948D01*
X0078117Y0147016D01*
X0078127Y0147084D01*
X0078141Y0147151D01*
X0078159Y0147218D01*
X0078180Y0147283D01*
X0078206Y0147347D01*
X0078235Y0147409D01*
X0078267Y0147469D01*
X0078303Y0147528D01*
X0078343Y0147584D01*
X0078385Y0147638D01*
X0078431Y0147689D01*
X0078480Y0147738D01*
X0078531Y0147784D01*
X0078585Y0147826D01*
X0078641Y0147866D01*
X0078699Y0147902D01*
X0078760Y0147934D01*
X0078822Y0147963D01*
X0078886Y0147989D01*
X0078951Y0148010D01*
X0079018Y0148028D01*
X0079085Y0148042D01*
X0079153Y0148052D01*
X0079221Y0148058D01*
X0079290Y0148060D01*
X0079359Y0148058D01*
X0079427Y0148052D01*
X0079495Y0148042D01*
X0079562Y0148028D01*
X0079629Y0148010D01*
X0079694Y0147989D01*
X0079758Y0147963D01*
X0079820Y0147934D01*
X0079880Y0147902D01*
X0079939Y0147866D01*
X0079995Y0147826D01*
X0080049Y0147784D01*
X0080100Y0147738D01*
X0080149Y0147689D01*
X0080195Y0147638D01*
X0080237Y0147584D01*
X0080277Y0147528D01*
X0080313Y0147469D01*
X0080345Y0147409D01*
X0080374Y0147347D01*
X0080400Y0147283D01*
X0080421Y0147218D01*
X0080439Y0147151D01*
X0080453Y0147084D01*
X0080463Y0147016D01*
X0080469Y0146948D01*
X0080471Y0146879D01*
X0080469Y0146810D01*
X0080463Y0146742D01*
X0080453Y0146674D01*
X0080439Y0146607D01*
X0080421Y0146540D01*
X0080400Y0146475D01*
X0080374Y0146411D01*
X0080345Y0146349D01*
X0080313Y0146288D01*
X0080277Y0146230D01*
X0080237Y0146174D01*
X0080195Y0146120D01*
X0080149Y0146069D01*
X0080100Y0146020D01*
X0080049Y0145974D01*
X0079995Y0145932D01*
X0079939Y0145892D01*
X0079881Y0145856D01*
X0079820Y0145824D01*
X0079758Y0145795D01*
X0079694Y0145769D01*
X0079629Y0145748D01*
X0079562Y0145730D01*
X0079495Y0145716D01*
X0079427Y0145706D01*
X0079359Y0145700D01*
X0079290Y0145698D01*
X0079221Y0145700D01*
X0079153Y0145706D01*
X0079085Y0145716D01*
X0079018Y0145730D01*
X0078951Y0145748D01*
X0078886Y0145769D01*
X0078822Y0145795D01*
X0078760Y0145824D01*
X0078699Y0145856D01*
X0078641Y0145892D01*
X0078585Y0145932D01*
X0078531Y0145974D01*
X0078480Y0146020D01*
X0078431Y0146069D01*
X0078385Y0146120D01*
X0078343Y0146174D01*
X0078303Y0146230D01*
X0078267Y0146288D01*
X0078235Y0146349D01*
X0078206Y0146411D01*
X0078180Y0146475D01*
X0078159Y0146540D01*
X0078141Y0146607D01*
X0078127Y0146674D01*
X0078117Y0146742D01*
X0078111Y0146810D01*
X0078109Y0146879D01*
X0080668Y0150028D02*
X0080670Y0150097D01*
X0080676Y0150165D01*
X0080686Y0150233D01*
X0080700Y0150300D01*
X0080718Y0150367D01*
X0080739Y0150432D01*
X0080765Y0150496D01*
X0080794Y0150558D01*
X0080826Y0150618D01*
X0080862Y0150677D01*
X0080902Y0150733D01*
X0080944Y0150787D01*
X0080990Y0150838D01*
X0081039Y0150887D01*
X0081090Y0150933D01*
X0081144Y0150975D01*
X0081200Y0151015D01*
X0081258Y0151051D01*
X0081319Y0151083D01*
X0081381Y0151112D01*
X0081445Y0151138D01*
X0081510Y0151159D01*
X0081577Y0151177D01*
X0081644Y0151191D01*
X0081712Y0151201D01*
X0081780Y0151207D01*
X0081849Y0151209D01*
X0081918Y0151207D01*
X0081986Y0151201D01*
X0082054Y0151191D01*
X0082121Y0151177D01*
X0082188Y0151159D01*
X0082253Y0151138D01*
X0082317Y0151112D01*
X0082379Y0151083D01*
X0082439Y0151051D01*
X0082498Y0151015D01*
X0082554Y0150975D01*
X0082608Y0150933D01*
X0082659Y0150887D01*
X0082708Y0150838D01*
X0082754Y0150787D01*
X0082796Y0150733D01*
X0082836Y0150677D01*
X0082872Y0150618D01*
X0082904Y0150558D01*
X0082933Y0150496D01*
X0082959Y0150432D01*
X0082980Y0150367D01*
X0082998Y0150300D01*
X0083012Y0150233D01*
X0083022Y0150165D01*
X0083028Y0150097D01*
X0083030Y0150028D01*
X0083028Y0149959D01*
X0083022Y0149891D01*
X0083012Y0149823D01*
X0082998Y0149756D01*
X0082980Y0149689D01*
X0082959Y0149624D01*
X0082933Y0149560D01*
X0082904Y0149498D01*
X0082872Y0149437D01*
X0082836Y0149379D01*
X0082796Y0149323D01*
X0082754Y0149269D01*
X0082708Y0149218D01*
X0082659Y0149169D01*
X0082608Y0149123D01*
X0082554Y0149081D01*
X0082498Y0149041D01*
X0082440Y0149005D01*
X0082379Y0148973D01*
X0082317Y0148944D01*
X0082253Y0148918D01*
X0082188Y0148897D01*
X0082121Y0148879D01*
X0082054Y0148865D01*
X0081986Y0148855D01*
X0081918Y0148849D01*
X0081849Y0148847D01*
X0081780Y0148849D01*
X0081712Y0148855D01*
X0081644Y0148865D01*
X0081577Y0148879D01*
X0081510Y0148897D01*
X0081445Y0148918D01*
X0081381Y0148944D01*
X0081319Y0148973D01*
X0081258Y0149005D01*
X0081200Y0149041D01*
X0081144Y0149081D01*
X0081090Y0149123D01*
X0081039Y0149169D01*
X0080990Y0149218D01*
X0080944Y0149269D01*
X0080902Y0149323D01*
X0080862Y0149379D01*
X0080826Y0149437D01*
X0080794Y0149498D01*
X0080765Y0149560D01*
X0080739Y0149624D01*
X0080718Y0149689D01*
X0080700Y0149756D01*
X0080686Y0149823D01*
X0080676Y0149891D01*
X0080670Y0149959D01*
X0080668Y0150028D01*
X0082833Y0153572D02*
X0082835Y0153641D01*
X0082841Y0153709D01*
X0082851Y0153777D01*
X0082865Y0153844D01*
X0082883Y0153911D01*
X0082904Y0153976D01*
X0082930Y0154040D01*
X0082959Y0154102D01*
X0082991Y0154162D01*
X0083027Y0154221D01*
X0083067Y0154277D01*
X0083109Y0154331D01*
X0083155Y0154382D01*
X0083204Y0154431D01*
X0083255Y0154477D01*
X0083309Y0154519D01*
X0083365Y0154559D01*
X0083423Y0154595D01*
X0083484Y0154627D01*
X0083546Y0154656D01*
X0083610Y0154682D01*
X0083675Y0154703D01*
X0083742Y0154721D01*
X0083809Y0154735D01*
X0083877Y0154745D01*
X0083945Y0154751D01*
X0084014Y0154753D01*
X0084083Y0154751D01*
X0084151Y0154745D01*
X0084219Y0154735D01*
X0084286Y0154721D01*
X0084353Y0154703D01*
X0084418Y0154682D01*
X0084482Y0154656D01*
X0084544Y0154627D01*
X0084604Y0154595D01*
X0084663Y0154559D01*
X0084719Y0154519D01*
X0084773Y0154477D01*
X0084824Y0154431D01*
X0084873Y0154382D01*
X0084919Y0154331D01*
X0084961Y0154277D01*
X0085001Y0154221D01*
X0085037Y0154162D01*
X0085069Y0154102D01*
X0085098Y0154040D01*
X0085124Y0153976D01*
X0085145Y0153911D01*
X0085163Y0153844D01*
X0085177Y0153777D01*
X0085187Y0153709D01*
X0085193Y0153641D01*
X0085195Y0153572D01*
X0085193Y0153503D01*
X0085187Y0153435D01*
X0085177Y0153367D01*
X0085163Y0153300D01*
X0085145Y0153233D01*
X0085124Y0153168D01*
X0085098Y0153104D01*
X0085069Y0153042D01*
X0085037Y0152981D01*
X0085001Y0152923D01*
X0084961Y0152867D01*
X0084919Y0152813D01*
X0084873Y0152762D01*
X0084824Y0152713D01*
X0084773Y0152667D01*
X0084719Y0152625D01*
X0084663Y0152585D01*
X0084605Y0152549D01*
X0084544Y0152517D01*
X0084482Y0152488D01*
X0084418Y0152462D01*
X0084353Y0152441D01*
X0084286Y0152423D01*
X0084219Y0152409D01*
X0084151Y0152399D01*
X0084083Y0152393D01*
X0084014Y0152391D01*
X0083945Y0152393D01*
X0083877Y0152399D01*
X0083809Y0152409D01*
X0083742Y0152423D01*
X0083675Y0152441D01*
X0083610Y0152462D01*
X0083546Y0152488D01*
X0083484Y0152517D01*
X0083423Y0152549D01*
X0083365Y0152585D01*
X0083309Y0152625D01*
X0083255Y0152667D01*
X0083204Y0152713D01*
X0083155Y0152762D01*
X0083109Y0152813D01*
X0083067Y0152867D01*
X0083027Y0152923D01*
X0082991Y0152981D01*
X0082959Y0153042D01*
X0082930Y0153104D01*
X0082904Y0153168D01*
X0082883Y0153233D01*
X0082865Y0153300D01*
X0082851Y0153367D01*
X0082841Y0153435D01*
X0082835Y0153503D01*
X0082833Y0153572D01*
X0084605Y0157312D02*
X0084607Y0157381D01*
X0084613Y0157449D01*
X0084623Y0157517D01*
X0084637Y0157584D01*
X0084655Y0157651D01*
X0084676Y0157716D01*
X0084702Y0157780D01*
X0084731Y0157842D01*
X0084763Y0157902D01*
X0084799Y0157961D01*
X0084839Y0158017D01*
X0084881Y0158071D01*
X0084927Y0158122D01*
X0084976Y0158171D01*
X0085027Y0158217D01*
X0085081Y0158259D01*
X0085137Y0158299D01*
X0085195Y0158335D01*
X0085256Y0158367D01*
X0085318Y0158396D01*
X0085382Y0158422D01*
X0085447Y0158443D01*
X0085514Y0158461D01*
X0085581Y0158475D01*
X0085649Y0158485D01*
X0085717Y0158491D01*
X0085786Y0158493D01*
X0085855Y0158491D01*
X0085923Y0158485D01*
X0085991Y0158475D01*
X0086058Y0158461D01*
X0086125Y0158443D01*
X0086190Y0158422D01*
X0086254Y0158396D01*
X0086316Y0158367D01*
X0086376Y0158335D01*
X0086435Y0158299D01*
X0086491Y0158259D01*
X0086545Y0158217D01*
X0086596Y0158171D01*
X0086645Y0158122D01*
X0086691Y0158071D01*
X0086733Y0158017D01*
X0086773Y0157961D01*
X0086809Y0157902D01*
X0086841Y0157842D01*
X0086870Y0157780D01*
X0086896Y0157716D01*
X0086917Y0157651D01*
X0086935Y0157584D01*
X0086949Y0157517D01*
X0086959Y0157449D01*
X0086965Y0157381D01*
X0086967Y0157312D01*
X0086965Y0157243D01*
X0086959Y0157175D01*
X0086949Y0157107D01*
X0086935Y0157040D01*
X0086917Y0156973D01*
X0086896Y0156908D01*
X0086870Y0156844D01*
X0086841Y0156782D01*
X0086809Y0156721D01*
X0086773Y0156663D01*
X0086733Y0156607D01*
X0086691Y0156553D01*
X0086645Y0156502D01*
X0086596Y0156453D01*
X0086545Y0156407D01*
X0086491Y0156365D01*
X0086435Y0156325D01*
X0086377Y0156289D01*
X0086316Y0156257D01*
X0086254Y0156228D01*
X0086190Y0156202D01*
X0086125Y0156181D01*
X0086058Y0156163D01*
X0085991Y0156149D01*
X0085923Y0156139D01*
X0085855Y0156133D01*
X0085786Y0156131D01*
X0085717Y0156133D01*
X0085649Y0156139D01*
X0085581Y0156149D01*
X0085514Y0156163D01*
X0085447Y0156181D01*
X0085382Y0156202D01*
X0085318Y0156228D01*
X0085256Y0156257D01*
X0085195Y0156289D01*
X0085137Y0156325D01*
X0085081Y0156365D01*
X0085027Y0156407D01*
X0084976Y0156453D01*
X0084927Y0156502D01*
X0084881Y0156553D01*
X0084839Y0156607D01*
X0084799Y0156663D01*
X0084763Y0156721D01*
X0084731Y0156782D01*
X0084702Y0156844D01*
X0084676Y0156908D01*
X0084655Y0156973D01*
X0084637Y0157040D01*
X0084623Y0157107D01*
X0084613Y0157175D01*
X0084607Y0157243D01*
X0084605Y0157312D01*
X0086180Y0161249D02*
X0086182Y0161318D01*
X0086188Y0161386D01*
X0086198Y0161454D01*
X0086212Y0161521D01*
X0086230Y0161588D01*
X0086251Y0161653D01*
X0086277Y0161717D01*
X0086306Y0161779D01*
X0086338Y0161839D01*
X0086374Y0161898D01*
X0086414Y0161954D01*
X0086456Y0162008D01*
X0086502Y0162059D01*
X0086551Y0162108D01*
X0086602Y0162154D01*
X0086656Y0162196D01*
X0086712Y0162236D01*
X0086770Y0162272D01*
X0086831Y0162304D01*
X0086893Y0162333D01*
X0086957Y0162359D01*
X0087022Y0162380D01*
X0087089Y0162398D01*
X0087156Y0162412D01*
X0087224Y0162422D01*
X0087292Y0162428D01*
X0087361Y0162430D01*
X0087430Y0162428D01*
X0087498Y0162422D01*
X0087566Y0162412D01*
X0087633Y0162398D01*
X0087700Y0162380D01*
X0087765Y0162359D01*
X0087829Y0162333D01*
X0087891Y0162304D01*
X0087951Y0162272D01*
X0088010Y0162236D01*
X0088066Y0162196D01*
X0088120Y0162154D01*
X0088171Y0162108D01*
X0088220Y0162059D01*
X0088266Y0162008D01*
X0088308Y0161954D01*
X0088348Y0161898D01*
X0088384Y0161839D01*
X0088416Y0161779D01*
X0088445Y0161717D01*
X0088471Y0161653D01*
X0088492Y0161588D01*
X0088510Y0161521D01*
X0088524Y0161454D01*
X0088534Y0161386D01*
X0088540Y0161318D01*
X0088542Y0161249D01*
X0088540Y0161180D01*
X0088534Y0161112D01*
X0088524Y0161044D01*
X0088510Y0160977D01*
X0088492Y0160910D01*
X0088471Y0160845D01*
X0088445Y0160781D01*
X0088416Y0160719D01*
X0088384Y0160658D01*
X0088348Y0160600D01*
X0088308Y0160544D01*
X0088266Y0160490D01*
X0088220Y0160439D01*
X0088171Y0160390D01*
X0088120Y0160344D01*
X0088066Y0160302D01*
X0088010Y0160262D01*
X0087952Y0160226D01*
X0087891Y0160194D01*
X0087829Y0160165D01*
X0087765Y0160139D01*
X0087700Y0160118D01*
X0087633Y0160100D01*
X0087566Y0160086D01*
X0087498Y0160076D01*
X0087430Y0160070D01*
X0087361Y0160068D01*
X0087292Y0160070D01*
X0087224Y0160076D01*
X0087156Y0160086D01*
X0087089Y0160100D01*
X0087022Y0160118D01*
X0086957Y0160139D01*
X0086893Y0160165D01*
X0086831Y0160194D01*
X0086770Y0160226D01*
X0086712Y0160262D01*
X0086656Y0160302D01*
X0086602Y0160344D01*
X0086551Y0160390D01*
X0086502Y0160439D01*
X0086456Y0160490D01*
X0086414Y0160544D01*
X0086374Y0160600D01*
X0086338Y0160658D01*
X0086306Y0160719D01*
X0086277Y0160781D01*
X0086251Y0160845D01*
X0086230Y0160910D01*
X0086212Y0160977D01*
X0086198Y0161044D01*
X0086188Y0161112D01*
X0086182Y0161180D01*
X0086180Y0161249D01*
X0087361Y0165776D02*
X0087363Y0165845D01*
X0087369Y0165913D01*
X0087379Y0165981D01*
X0087393Y0166048D01*
X0087411Y0166115D01*
X0087432Y0166180D01*
X0087458Y0166244D01*
X0087487Y0166306D01*
X0087519Y0166366D01*
X0087555Y0166425D01*
X0087595Y0166481D01*
X0087637Y0166535D01*
X0087683Y0166586D01*
X0087732Y0166635D01*
X0087783Y0166681D01*
X0087837Y0166723D01*
X0087893Y0166763D01*
X0087951Y0166799D01*
X0088012Y0166831D01*
X0088074Y0166860D01*
X0088138Y0166886D01*
X0088203Y0166907D01*
X0088270Y0166925D01*
X0088337Y0166939D01*
X0088405Y0166949D01*
X0088473Y0166955D01*
X0088542Y0166957D01*
X0088611Y0166955D01*
X0088679Y0166949D01*
X0088747Y0166939D01*
X0088814Y0166925D01*
X0088881Y0166907D01*
X0088946Y0166886D01*
X0089010Y0166860D01*
X0089072Y0166831D01*
X0089132Y0166799D01*
X0089191Y0166763D01*
X0089247Y0166723D01*
X0089301Y0166681D01*
X0089352Y0166635D01*
X0089401Y0166586D01*
X0089447Y0166535D01*
X0089489Y0166481D01*
X0089529Y0166425D01*
X0089565Y0166366D01*
X0089597Y0166306D01*
X0089626Y0166244D01*
X0089652Y0166180D01*
X0089673Y0166115D01*
X0089691Y0166048D01*
X0089705Y0165981D01*
X0089715Y0165913D01*
X0089721Y0165845D01*
X0089723Y0165776D01*
X0089721Y0165707D01*
X0089715Y0165639D01*
X0089705Y0165571D01*
X0089691Y0165504D01*
X0089673Y0165437D01*
X0089652Y0165372D01*
X0089626Y0165308D01*
X0089597Y0165246D01*
X0089565Y0165185D01*
X0089529Y0165127D01*
X0089489Y0165071D01*
X0089447Y0165017D01*
X0089401Y0164966D01*
X0089352Y0164917D01*
X0089301Y0164871D01*
X0089247Y0164829D01*
X0089191Y0164789D01*
X0089133Y0164753D01*
X0089072Y0164721D01*
X0089010Y0164692D01*
X0088946Y0164666D01*
X0088881Y0164645D01*
X0088814Y0164627D01*
X0088747Y0164613D01*
X0088679Y0164603D01*
X0088611Y0164597D01*
X0088542Y0164595D01*
X0088473Y0164597D01*
X0088405Y0164603D01*
X0088337Y0164613D01*
X0088270Y0164627D01*
X0088203Y0164645D01*
X0088138Y0164666D01*
X0088074Y0164692D01*
X0088012Y0164721D01*
X0087951Y0164753D01*
X0087893Y0164789D01*
X0087837Y0164829D01*
X0087783Y0164871D01*
X0087732Y0164917D01*
X0087683Y0164966D01*
X0087637Y0165017D01*
X0087595Y0165071D01*
X0087555Y0165127D01*
X0087519Y0165185D01*
X0087487Y0165246D01*
X0087458Y0165308D01*
X0087432Y0165372D01*
X0087411Y0165437D01*
X0087393Y0165504D01*
X0087379Y0165571D01*
X0087369Y0165639D01*
X0087363Y0165707D01*
X0087361Y0165776D01*
X0087755Y0169517D02*
X0087757Y0169586D01*
X0087763Y0169654D01*
X0087773Y0169722D01*
X0087787Y0169789D01*
X0087805Y0169856D01*
X0087826Y0169921D01*
X0087852Y0169985D01*
X0087881Y0170047D01*
X0087913Y0170107D01*
X0087949Y0170166D01*
X0087989Y0170222D01*
X0088031Y0170276D01*
X0088077Y0170327D01*
X0088126Y0170376D01*
X0088177Y0170422D01*
X0088231Y0170464D01*
X0088287Y0170504D01*
X0088345Y0170540D01*
X0088406Y0170572D01*
X0088468Y0170601D01*
X0088532Y0170627D01*
X0088597Y0170648D01*
X0088664Y0170666D01*
X0088731Y0170680D01*
X0088799Y0170690D01*
X0088867Y0170696D01*
X0088936Y0170698D01*
X0089005Y0170696D01*
X0089073Y0170690D01*
X0089141Y0170680D01*
X0089208Y0170666D01*
X0089275Y0170648D01*
X0089340Y0170627D01*
X0089404Y0170601D01*
X0089466Y0170572D01*
X0089526Y0170540D01*
X0089585Y0170504D01*
X0089641Y0170464D01*
X0089695Y0170422D01*
X0089746Y0170376D01*
X0089795Y0170327D01*
X0089841Y0170276D01*
X0089883Y0170222D01*
X0089923Y0170166D01*
X0089959Y0170107D01*
X0089991Y0170047D01*
X0090020Y0169985D01*
X0090046Y0169921D01*
X0090067Y0169856D01*
X0090085Y0169789D01*
X0090099Y0169722D01*
X0090109Y0169654D01*
X0090115Y0169586D01*
X0090117Y0169517D01*
X0090115Y0169448D01*
X0090109Y0169380D01*
X0090099Y0169312D01*
X0090085Y0169245D01*
X0090067Y0169178D01*
X0090046Y0169113D01*
X0090020Y0169049D01*
X0089991Y0168987D01*
X0089959Y0168926D01*
X0089923Y0168868D01*
X0089883Y0168812D01*
X0089841Y0168758D01*
X0089795Y0168707D01*
X0089746Y0168658D01*
X0089695Y0168612D01*
X0089641Y0168570D01*
X0089585Y0168530D01*
X0089527Y0168494D01*
X0089466Y0168462D01*
X0089404Y0168433D01*
X0089340Y0168407D01*
X0089275Y0168386D01*
X0089208Y0168368D01*
X0089141Y0168354D01*
X0089073Y0168344D01*
X0089005Y0168338D01*
X0088936Y0168336D01*
X0088867Y0168338D01*
X0088799Y0168344D01*
X0088731Y0168354D01*
X0088664Y0168368D01*
X0088597Y0168386D01*
X0088532Y0168407D01*
X0088468Y0168433D01*
X0088406Y0168462D01*
X0088345Y0168494D01*
X0088287Y0168530D01*
X0088231Y0168570D01*
X0088177Y0168612D01*
X0088126Y0168658D01*
X0088077Y0168707D01*
X0088031Y0168758D01*
X0087989Y0168812D01*
X0087949Y0168868D01*
X0087913Y0168926D01*
X0087881Y0168987D01*
X0087852Y0169049D01*
X0087826Y0169113D01*
X0087805Y0169178D01*
X0087787Y0169245D01*
X0087773Y0169312D01*
X0087763Y0169380D01*
X0087757Y0169448D01*
X0087755Y0169517D01*
X0087951Y0173060D02*
X0087953Y0173129D01*
X0087959Y0173197D01*
X0087969Y0173265D01*
X0087983Y0173332D01*
X0088001Y0173399D01*
X0088022Y0173464D01*
X0088048Y0173528D01*
X0088077Y0173590D01*
X0088109Y0173650D01*
X0088145Y0173709D01*
X0088185Y0173765D01*
X0088227Y0173819D01*
X0088273Y0173870D01*
X0088322Y0173919D01*
X0088373Y0173965D01*
X0088427Y0174007D01*
X0088483Y0174047D01*
X0088541Y0174083D01*
X0088602Y0174115D01*
X0088664Y0174144D01*
X0088728Y0174170D01*
X0088793Y0174191D01*
X0088860Y0174209D01*
X0088927Y0174223D01*
X0088995Y0174233D01*
X0089063Y0174239D01*
X0089132Y0174241D01*
X0089201Y0174239D01*
X0089269Y0174233D01*
X0089337Y0174223D01*
X0089404Y0174209D01*
X0089471Y0174191D01*
X0089536Y0174170D01*
X0089600Y0174144D01*
X0089662Y0174115D01*
X0089722Y0174083D01*
X0089781Y0174047D01*
X0089837Y0174007D01*
X0089891Y0173965D01*
X0089942Y0173919D01*
X0089991Y0173870D01*
X0090037Y0173819D01*
X0090079Y0173765D01*
X0090119Y0173709D01*
X0090155Y0173650D01*
X0090187Y0173590D01*
X0090216Y0173528D01*
X0090242Y0173464D01*
X0090263Y0173399D01*
X0090281Y0173332D01*
X0090295Y0173265D01*
X0090305Y0173197D01*
X0090311Y0173129D01*
X0090313Y0173060D01*
X0090311Y0172991D01*
X0090305Y0172923D01*
X0090295Y0172855D01*
X0090281Y0172788D01*
X0090263Y0172721D01*
X0090242Y0172656D01*
X0090216Y0172592D01*
X0090187Y0172530D01*
X0090155Y0172469D01*
X0090119Y0172411D01*
X0090079Y0172355D01*
X0090037Y0172301D01*
X0089991Y0172250D01*
X0089942Y0172201D01*
X0089891Y0172155D01*
X0089837Y0172113D01*
X0089781Y0172073D01*
X0089723Y0172037D01*
X0089662Y0172005D01*
X0089600Y0171976D01*
X0089536Y0171950D01*
X0089471Y0171929D01*
X0089404Y0171911D01*
X0089337Y0171897D01*
X0089269Y0171887D01*
X0089201Y0171881D01*
X0089132Y0171879D01*
X0089063Y0171881D01*
X0088995Y0171887D01*
X0088927Y0171897D01*
X0088860Y0171911D01*
X0088793Y0171929D01*
X0088728Y0171950D01*
X0088664Y0171976D01*
X0088602Y0172005D01*
X0088541Y0172037D01*
X0088483Y0172073D01*
X0088427Y0172113D01*
X0088373Y0172155D01*
X0088322Y0172201D01*
X0088273Y0172250D01*
X0088227Y0172301D01*
X0088185Y0172355D01*
X0088145Y0172411D01*
X0088109Y0172469D01*
X0088077Y0172530D01*
X0088048Y0172592D01*
X0088022Y0172656D01*
X0088001Y0172721D01*
X0087983Y0172788D01*
X0087969Y0172855D01*
X0087959Y0172923D01*
X0087953Y0172991D01*
X0087951Y0173060D01*
X0087755Y0176800D02*
X0087757Y0176869D01*
X0087763Y0176937D01*
X0087773Y0177005D01*
X0087787Y0177072D01*
X0087805Y0177139D01*
X0087826Y0177204D01*
X0087852Y0177268D01*
X0087881Y0177330D01*
X0087913Y0177390D01*
X0087949Y0177449D01*
X0087989Y0177505D01*
X0088031Y0177559D01*
X0088077Y0177610D01*
X0088126Y0177659D01*
X0088177Y0177705D01*
X0088231Y0177747D01*
X0088287Y0177787D01*
X0088345Y0177823D01*
X0088406Y0177855D01*
X0088468Y0177884D01*
X0088532Y0177910D01*
X0088597Y0177931D01*
X0088664Y0177949D01*
X0088731Y0177963D01*
X0088799Y0177973D01*
X0088867Y0177979D01*
X0088936Y0177981D01*
X0089005Y0177979D01*
X0089073Y0177973D01*
X0089141Y0177963D01*
X0089208Y0177949D01*
X0089275Y0177931D01*
X0089340Y0177910D01*
X0089404Y0177884D01*
X0089466Y0177855D01*
X0089526Y0177823D01*
X0089585Y0177787D01*
X0089641Y0177747D01*
X0089695Y0177705D01*
X0089746Y0177659D01*
X0089795Y0177610D01*
X0089841Y0177559D01*
X0089883Y0177505D01*
X0089923Y0177449D01*
X0089959Y0177390D01*
X0089991Y0177330D01*
X0090020Y0177268D01*
X0090046Y0177204D01*
X0090067Y0177139D01*
X0090085Y0177072D01*
X0090099Y0177005D01*
X0090109Y0176937D01*
X0090115Y0176869D01*
X0090117Y0176800D01*
X0090115Y0176731D01*
X0090109Y0176663D01*
X0090099Y0176595D01*
X0090085Y0176528D01*
X0090067Y0176461D01*
X0090046Y0176396D01*
X0090020Y0176332D01*
X0089991Y0176270D01*
X0089959Y0176209D01*
X0089923Y0176151D01*
X0089883Y0176095D01*
X0089841Y0176041D01*
X0089795Y0175990D01*
X0089746Y0175941D01*
X0089695Y0175895D01*
X0089641Y0175853D01*
X0089585Y0175813D01*
X0089527Y0175777D01*
X0089466Y0175745D01*
X0089404Y0175716D01*
X0089340Y0175690D01*
X0089275Y0175669D01*
X0089208Y0175651D01*
X0089141Y0175637D01*
X0089073Y0175627D01*
X0089005Y0175621D01*
X0088936Y0175619D01*
X0088867Y0175621D01*
X0088799Y0175627D01*
X0088731Y0175637D01*
X0088664Y0175651D01*
X0088597Y0175669D01*
X0088532Y0175690D01*
X0088468Y0175716D01*
X0088406Y0175745D01*
X0088345Y0175777D01*
X0088287Y0175813D01*
X0088231Y0175853D01*
X0088177Y0175895D01*
X0088126Y0175941D01*
X0088077Y0175990D01*
X0088031Y0176041D01*
X0087989Y0176095D01*
X0087949Y0176151D01*
X0087913Y0176209D01*
X0087881Y0176270D01*
X0087852Y0176332D01*
X0087826Y0176396D01*
X0087805Y0176461D01*
X0087787Y0176528D01*
X0087773Y0176595D01*
X0087763Y0176663D01*
X0087757Y0176731D01*
X0087755Y0176800D01*
X0087361Y0180540D02*
X0087363Y0180609D01*
X0087369Y0180677D01*
X0087379Y0180745D01*
X0087393Y0180812D01*
X0087411Y0180879D01*
X0087432Y0180944D01*
X0087458Y0181008D01*
X0087487Y0181070D01*
X0087519Y0181130D01*
X0087555Y0181189D01*
X0087595Y0181245D01*
X0087637Y0181299D01*
X0087683Y0181350D01*
X0087732Y0181399D01*
X0087783Y0181445D01*
X0087837Y0181487D01*
X0087893Y0181527D01*
X0087951Y0181563D01*
X0088012Y0181595D01*
X0088074Y0181624D01*
X0088138Y0181650D01*
X0088203Y0181671D01*
X0088270Y0181689D01*
X0088337Y0181703D01*
X0088405Y0181713D01*
X0088473Y0181719D01*
X0088542Y0181721D01*
X0088611Y0181719D01*
X0088679Y0181713D01*
X0088747Y0181703D01*
X0088814Y0181689D01*
X0088881Y0181671D01*
X0088946Y0181650D01*
X0089010Y0181624D01*
X0089072Y0181595D01*
X0089132Y0181563D01*
X0089191Y0181527D01*
X0089247Y0181487D01*
X0089301Y0181445D01*
X0089352Y0181399D01*
X0089401Y0181350D01*
X0089447Y0181299D01*
X0089489Y0181245D01*
X0089529Y0181189D01*
X0089565Y0181130D01*
X0089597Y0181070D01*
X0089626Y0181008D01*
X0089652Y0180944D01*
X0089673Y0180879D01*
X0089691Y0180812D01*
X0089705Y0180745D01*
X0089715Y0180677D01*
X0089721Y0180609D01*
X0089723Y0180540D01*
X0089721Y0180471D01*
X0089715Y0180403D01*
X0089705Y0180335D01*
X0089691Y0180268D01*
X0089673Y0180201D01*
X0089652Y0180136D01*
X0089626Y0180072D01*
X0089597Y0180010D01*
X0089565Y0179949D01*
X0089529Y0179891D01*
X0089489Y0179835D01*
X0089447Y0179781D01*
X0089401Y0179730D01*
X0089352Y0179681D01*
X0089301Y0179635D01*
X0089247Y0179593D01*
X0089191Y0179553D01*
X0089133Y0179517D01*
X0089072Y0179485D01*
X0089010Y0179456D01*
X0088946Y0179430D01*
X0088881Y0179409D01*
X0088814Y0179391D01*
X0088747Y0179377D01*
X0088679Y0179367D01*
X0088611Y0179361D01*
X0088542Y0179359D01*
X0088473Y0179361D01*
X0088405Y0179367D01*
X0088337Y0179377D01*
X0088270Y0179391D01*
X0088203Y0179409D01*
X0088138Y0179430D01*
X0088074Y0179456D01*
X0088012Y0179485D01*
X0087951Y0179517D01*
X0087893Y0179553D01*
X0087837Y0179593D01*
X0087783Y0179635D01*
X0087732Y0179681D01*
X0087683Y0179730D01*
X0087637Y0179781D01*
X0087595Y0179835D01*
X0087555Y0179891D01*
X0087519Y0179949D01*
X0087487Y0180010D01*
X0087458Y0180072D01*
X0087432Y0180136D01*
X0087411Y0180201D01*
X0087393Y0180268D01*
X0087379Y0180335D01*
X0087369Y0180403D01*
X0087363Y0180471D01*
X0087361Y0180540D01*
X0086180Y0185068D02*
X0086182Y0185137D01*
X0086188Y0185205D01*
X0086198Y0185273D01*
X0086212Y0185340D01*
X0086230Y0185407D01*
X0086251Y0185472D01*
X0086277Y0185536D01*
X0086306Y0185598D01*
X0086338Y0185658D01*
X0086374Y0185717D01*
X0086414Y0185773D01*
X0086456Y0185827D01*
X0086502Y0185878D01*
X0086551Y0185927D01*
X0086602Y0185973D01*
X0086656Y0186015D01*
X0086712Y0186055D01*
X0086770Y0186091D01*
X0086831Y0186123D01*
X0086893Y0186152D01*
X0086957Y0186178D01*
X0087022Y0186199D01*
X0087089Y0186217D01*
X0087156Y0186231D01*
X0087224Y0186241D01*
X0087292Y0186247D01*
X0087361Y0186249D01*
X0087430Y0186247D01*
X0087498Y0186241D01*
X0087566Y0186231D01*
X0087633Y0186217D01*
X0087700Y0186199D01*
X0087765Y0186178D01*
X0087829Y0186152D01*
X0087891Y0186123D01*
X0087951Y0186091D01*
X0088010Y0186055D01*
X0088066Y0186015D01*
X0088120Y0185973D01*
X0088171Y0185927D01*
X0088220Y0185878D01*
X0088266Y0185827D01*
X0088308Y0185773D01*
X0088348Y0185717D01*
X0088384Y0185658D01*
X0088416Y0185598D01*
X0088445Y0185536D01*
X0088471Y0185472D01*
X0088492Y0185407D01*
X0088510Y0185340D01*
X0088524Y0185273D01*
X0088534Y0185205D01*
X0088540Y0185137D01*
X0088542Y0185068D01*
X0088540Y0184999D01*
X0088534Y0184931D01*
X0088524Y0184863D01*
X0088510Y0184796D01*
X0088492Y0184729D01*
X0088471Y0184664D01*
X0088445Y0184600D01*
X0088416Y0184538D01*
X0088384Y0184477D01*
X0088348Y0184419D01*
X0088308Y0184363D01*
X0088266Y0184309D01*
X0088220Y0184258D01*
X0088171Y0184209D01*
X0088120Y0184163D01*
X0088066Y0184121D01*
X0088010Y0184081D01*
X0087952Y0184045D01*
X0087891Y0184013D01*
X0087829Y0183984D01*
X0087765Y0183958D01*
X0087700Y0183937D01*
X0087633Y0183919D01*
X0087566Y0183905D01*
X0087498Y0183895D01*
X0087430Y0183889D01*
X0087361Y0183887D01*
X0087292Y0183889D01*
X0087224Y0183895D01*
X0087156Y0183905D01*
X0087089Y0183919D01*
X0087022Y0183937D01*
X0086957Y0183958D01*
X0086893Y0183984D01*
X0086831Y0184013D01*
X0086770Y0184045D01*
X0086712Y0184081D01*
X0086656Y0184121D01*
X0086602Y0184163D01*
X0086551Y0184209D01*
X0086502Y0184258D01*
X0086456Y0184309D01*
X0086414Y0184363D01*
X0086374Y0184419D01*
X0086338Y0184477D01*
X0086306Y0184538D01*
X0086277Y0184600D01*
X0086251Y0184664D01*
X0086230Y0184729D01*
X0086212Y0184796D01*
X0086198Y0184863D01*
X0086188Y0184931D01*
X0086182Y0184999D01*
X0086180Y0185068D01*
X0084605Y0189005D02*
X0084607Y0189074D01*
X0084613Y0189142D01*
X0084623Y0189210D01*
X0084637Y0189277D01*
X0084655Y0189344D01*
X0084676Y0189409D01*
X0084702Y0189473D01*
X0084731Y0189535D01*
X0084763Y0189595D01*
X0084799Y0189654D01*
X0084839Y0189710D01*
X0084881Y0189764D01*
X0084927Y0189815D01*
X0084976Y0189864D01*
X0085027Y0189910D01*
X0085081Y0189952D01*
X0085137Y0189992D01*
X0085195Y0190028D01*
X0085256Y0190060D01*
X0085318Y0190089D01*
X0085382Y0190115D01*
X0085447Y0190136D01*
X0085514Y0190154D01*
X0085581Y0190168D01*
X0085649Y0190178D01*
X0085717Y0190184D01*
X0085786Y0190186D01*
X0085855Y0190184D01*
X0085923Y0190178D01*
X0085991Y0190168D01*
X0086058Y0190154D01*
X0086125Y0190136D01*
X0086190Y0190115D01*
X0086254Y0190089D01*
X0086316Y0190060D01*
X0086376Y0190028D01*
X0086435Y0189992D01*
X0086491Y0189952D01*
X0086545Y0189910D01*
X0086596Y0189864D01*
X0086645Y0189815D01*
X0086691Y0189764D01*
X0086733Y0189710D01*
X0086773Y0189654D01*
X0086809Y0189595D01*
X0086841Y0189535D01*
X0086870Y0189473D01*
X0086896Y0189409D01*
X0086917Y0189344D01*
X0086935Y0189277D01*
X0086949Y0189210D01*
X0086959Y0189142D01*
X0086965Y0189074D01*
X0086967Y0189005D01*
X0086965Y0188936D01*
X0086959Y0188868D01*
X0086949Y0188800D01*
X0086935Y0188733D01*
X0086917Y0188666D01*
X0086896Y0188601D01*
X0086870Y0188537D01*
X0086841Y0188475D01*
X0086809Y0188414D01*
X0086773Y0188356D01*
X0086733Y0188300D01*
X0086691Y0188246D01*
X0086645Y0188195D01*
X0086596Y0188146D01*
X0086545Y0188100D01*
X0086491Y0188058D01*
X0086435Y0188018D01*
X0086377Y0187982D01*
X0086316Y0187950D01*
X0086254Y0187921D01*
X0086190Y0187895D01*
X0086125Y0187874D01*
X0086058Y0187856D01*
X0085991Y0187842D01*
X0085923Y0187832D01*
X0085855Y0187826D01*
X0085786Y0187824D01*
X0085717Y0187826D01*
X0085649Y0187832D01*
X0085581Y0187842D01*
X0085514Y0187856D01*
X0085447Y0187874D01*
X0085382Y0187895D01*
X0085318Y0187921D01*
X0085256Y0187950D01*
X0085195Y0187982D01*
X0085137Y0188018D01*
X0085081Y0188058D01*
X0085027Y0188100D01*
X0084976Y0188146D01*
X0084927Y0188195D01*
X0084881Y0188246D01*
X0084839Y0188300D01*
X0084799Y0188356D01*
X0084763Y0188414D01*
X0084731Y0188475D01*
X0084702Y0188537D01*
X0084676Y0188601D01*
X0084655Y0188666D01*
X0084637Y0188733D01*
X0084623Y0188800D01*
X0084613Y0188868D01*
X0084607Y0188936D01*
X0084605Y0189005D01*
X0082833Y0192745D02*
X0082835Y0192814D01*
X0082841Y0192882D01*
X0082851Y0192950D01*
X0082865Y0193017D01*
X0082883Y0193084D01*
X0082904Y0193149D01*
X0082930Y0193213D01*
X0082959Y0193275D01*
X0082991Y0193335D01*
X0083027Y0193394D01*
X0083067Y0193450D01*
X0083109Y0193504D01*
X0083155Y0193555D01*
X0083204Y0193604D01*
X0083255Y0193650D01*
X0083309Y0193692D01*
X0083365Y0193732D01*
X0083423Y0193768D01*
X0083484Y0193800D01*
X0083546Y0193829D01*
X0083610Y0193855D01*
X0083675Y0193876D01*
X0083742Y0193894D01*
X0083809Y0193908D01*
X0083877Y0193918D01*
X0083945Y0193924D01*
X0084014Y0193926D01*
X0084083Y0193924D01*
X0084151Y0193918D01*
X0084219Y0193908D01*
X0084286Y0193894D01*
X0084353Y0193876D01*
X0084418Y0193855D01*
X0084482Y0193829D01*
X0084544Y0193800D01*
X0084604Y0193768D01*
X0084663Y0193732D01*
X0084719Y0193692D01*
X0084773Y0193650D01*
X0084824Y0193604D01*
X0084873Y0193555D01*
X0084919Y0193504D01*
X0084961Y0193450D01*
X0085001Y0193394D01*
X0085037Y0193335D01*
X0085069Y0193275D01*
X0085098Y0193213D01*
X0085124Y0193149D01*
X0085145Y0193084D01*
X0085163Y0193017D01*
X0085177Y0192950D01*
X0085187Y0192882D01*
X0085193Y0192814D01*
X0085195Y0192745D01*
X0085193Y0192676D01*
X0085187Y0192608D01*
X0085177Y0192540D01*
X0085163Y0192473D01*
X0085145Y0192406D01*
X0085124Y0192341D01*
X0085098Y0192277D01*
X0085069Y0192215D01*
X0085037Y0192154D01*
X0085001Y0192096D01*
X0084961Y0192040D01*
X0084919Y0191986D01*
X0084873Y0191935D01*
X0084824Y0191886D01*
X0084773Y0191840D01*
X0084719Y0191798D01*
X0084663Y0191758D01*
X0084605Y0191722D01*
X0084544Y0191690D01*
X0084482Y0191661D01*
X0084418Y0191635D01*
X0084353Y0191614D01*
X0084286Y0191596D01*
X0084219Y0191582D01*
X0084151Y0191572D01*
X0084083Y0191566D01*
X0084014Y0191564D01*
X0083945Y0191566D01*
X0083877Y0191572D01*
X0083809Y0191582D01*
X0083742Y0191596D01*
X0083675Y0191614D01*
X0083610Y0191635D01*
X0083546Y0191661D01*
X0083484Y0191690D01*
X0083423Y0191722D01*
X0083365Y0191758D01*
X0083309Y0191798D01*
X0083255Y0191840D01*
X0083204Y0191886D01*
X0083155Y0191935D01*
X0083109Y0191986D01*
X0083067Y0192040D01*
X0083027Y0192096D01*
X0082991Y0192154D01*
X0082959Y0192215D01*
X0082930Y0192277D01*
X0082904Y0192341D01*
X0082883Y0192406D01*
X0082865Y0192473D01*
X0082851Y0192540D01*
X0082841Y0192608D01*
X0082835Y0192676D01*
X0082833Y0192745D01*
X0080668Y0196288D02*
X0080670Y0196357D01*
X0080676Y0196425D01*
X0080686Y0196493D01*
X0080700Y0196560D01*
X0080718Y0196627D01*
X0080739Y0196692D01*
X0080765Y0196756D01*
X0080794Y0196818D01*
X0080826Y0196878D01*
X0080862Y0196937D01*
X0080902Y0196993D01*
X0080944Y0197047D01*
X0080990Y0197098D01*
X0081039Y0197147D01*
X0081090Y0197193D01*
X0081144Y0197235D01*
X0081200Y0197275D01*
X0081258Y0197311D01*
X0081319Y0197343D01*
X0081381Y0197372D01*
X0081445Y0197398D01*
X0081510Y0197419D01*
X0081577Y0197437D01*
X0081644Y0197451D01*
X0081712Y0197461D01*
X0081780Y0197467D01*
X0081849Y0197469D01*
X0081918Y0197467D01*
X0081986Y0197461D01*
X0082054Y0197451D01*
X0082121Y0197437D01*
X0082188Y0197419D01*
X0082253Y0197398D01*
X0082317Y0197372D01*
X0082379Y0197343D01*
X0082439Y0197311D01*
X0082498Y0197275D01*
X0082554Y0197235D01*
X0082608Y0197193D01*
X0082659Y0197147D01*
X0082708Y0197098D01*
X0082754Y0197047D01*
X0082796Y0196993D01*
X0082836Y0196937D01*
X0082872Y0196878D01*
X0082904Y0196818D01*
X0082933Y0196756D01*
X0082959Y0196692D01*
X0082980Y0196627D01*
X0082998Y0196560D01*
X0083012Y0196493D01*
X0083022Y0196425D01*
X0083028Y0196357D01*
X0083030Y0196288D01*
X0083028Y0196219D01*
X0083022Y0196151D01*
X0083012Y0196083D01*
X0082998Y0196016D01*
X0082980Y0195949D01*
X0082959Y0195884D01*
X0082933Y0195820D01*
X0082904Y0195758D01*
X0082872Y0195697D01*
X0082836Y0195639D01*
X0082796Y0195583D01*
X0082754Y0195529D01*
X0082708Y0195478D01*
X0082659Y0195429D01*
X0082608Y0195383D01*
X0082554Y0195341D01*
X0082498Y0195301D01*
X0082440Y0195265D01*
X0082379Y0195233D01*
X0082317Y0195204D01*
X0082253Y0195178D01*
X0082188Y0195157D01*
X0082121Y0195139D01*
X0082054Y0195125D01*
X0081986Y0195115D01*
X0081918Y0195109D01*
X0081849Y0195107D01*
X0081780Y0195109D01*
X0081712Y0195115D01*
X0081644Y0195125D01*
X0081577Y0195139D01*
X0081510Y0195157D01*
X0081445Y0195178D01*
X0081381Y0195204D01*
X0081319Y0195233D01*
X0081258Y0195265D01*
X0081200Y0195301D01*
X0081144Y0195341D01*
X0081090Y0195383D01*
X0081039Y0195429D01*
X0080990Y0195478D01*
X0080944Y0195529D01*
X0080902Y0195583D01*
X0080862Y0195639D01*
X0080826Y0195697D01*
X0080794Y0195758D01*
X0080765Y0195820D01*
X0080739Y0195884D01*
X0080718Y0195949D01*
X0080700Y0196016D01*
X0080686Y0196083D01*
X0080676Y0196151D01*
X0080670Y0196219D01*
X0080668Y0196288D01*
X0078109Y0199438D02*
X0078111Y0199507D01*
X0078117Y0199575D01*
X0078127Y0199643D01*
X0078141Y0199710D01*
X0078159Y0199777D01*
X0078180Y0199842D01*
X0078206Y0199906D01*
X0078235Y0199968D01*
X0078267Y0200028D01*
X0078303Y0200087D01*
X0078343Y0200143D01*
X0078385Y0200197D01*
X0078431Y0200248D01*
X0078480Y0200297D01*
X0078531Y0200343D01*
X0078585Y0200385D01*
X0078641Y0200425D01*
X0078699Y0200461D01*
X0078760Y0200493D01*
X0078822Y0200522D01*
X0078886Y0200548D01*
X0078951Y0200569D01*
X0079018Y0200587D01*
X0079085Y0200601D01*
X0079153Y0200611D01*
X0079221Y0200617D01*
X0079290Y0200619D01*
X0079359Y0200617D01*
X0079427Y0200611D01*
X0079495Y0200601D01*
X0079562Y0200587D01*
X0079629Y0200569D01*
X0079694Y0200548D01*
X0079758Y0200522D01*
X0079820Y0200493D01*
X0079880Y0200461D01*
X0079939Y0200425D01*
X0079995Y0200385D01*
X0080049Y0200343D01*
X0080100Y0200297D01*
X0080149Y0200248D01*
X0080195Y0200197D01*
X0080237Y0200143D01*
X0080277Y0200087D01*
X0080313Y0200028D01*
X0080345Y0199968D01*
X0080374Y0199906D01*
X0080400Y0199842D01*
X0080421Y0199777D01*
X0080439Y0199710D01*
X0080453Y0199643D01*
X0080463Y0199575D01*
X0080469Y0199507D01*
X0080471Y0199438D01*
X0080469Y0199369D01*
X0080463Y0199301D01*
X0080453Y0199233D01*
X0080439Y0199166D01*
X0080421Y0199099D01*
X0080400Y0199034D01*
X0080374Y0198970D01*
X0080345Y0198908D01*
X0080313Y0198847D01*
X0080277Y0198789D01*
X0080237Y0198733D01*
X0080195Y0198679D01*
X0080149Y0198628D01*
X0080100Y0198579D01*
X0080049Y0198533D01*
X0079995Y0198491D01*
X0079939Y0198451D01*
X0079881Y0198415D01*
X0079820Y0198383D01*
X0079758Y0198354D01*
X0079694Y0198328D01*
X0079629Y0198307D01*
X0079562Y0198289D01*
X0079495Y0198275D01*
X0079427Y0198265D01*
X0079359Y0198259D01*
X0079290Y0198257D01*
X0079221Y0198259D01*
X0079153Y0198265D01*
X0079085Y0198275D01*
X0079018Y0198289D01*
X0078951Y0198307D01*
X0078886Y0198328D01*
X0078822Y0198354D01*
X0078760Y0198383D01*
X0078699Y0198415D01*
X0078641Y0198451D01*
X0078585Y0198491D01*
X0078531Y0198533D01*
X0078480Y0198579D01*
X0078431Y0198628D01*
X0078385Y0198679D01*
X0078343Y0198733D01*
X0078303Y0198789D01*
X0078267Y0198847D01*
X0078235Y0198908D01*
X0078206Y0198970D01*
X0078180Y0199034D01*
X0078159Y0199099D01*
X0078141Y0199166D01*
X0078127Y0199233D01*
X0078117Y0199301D01*
X0078111Y0199369D01*
X0078109Y0199438D01*
X0075353Y0202194D02*
X0075355Y0202263D01*
X0075361Y0202331D01*
X0075371Y0202399D01*
X0075385Y0202466D01*
X0075403Y0202533D01*
X0075424Y0202598D01*
X0075450Y0202662D01*
X0075479Y0202724D01*
X0075511Y0202784D01*
X0075547Y0202843D01*
X0075587Y0202899D01*
X0075629Y0202953D01*
X0075675Y0203004D01*
X0075724Y0203053D01*
X0075775Y0203099D01*
X0075829Y0203141D01*
X0075885Y0203181D01*
X0075943Y0203217D01*
X0076004Y0203249D01*
X0076066Y0203278D01*
X0076130Y0203304D01*
X0076195Y0203325D01*
X0076262Y0203343D01*
X0076329Y0203357D01*
X0076397Y0203367D01*
X0076465Y0203373D01*
X0076534Y0203375D01*
X0076603Y0203373D01*
X0076671Y0203367D01*
X0076739Y0203357D01*
X0076806Y0203343D01*
X0076873Y0203325D01*
X0076938Y0203304D01*
X0077002Y0203278D01*
X0077064Y0203249D01*
X0077124Y0203217D01*
X0077183Y0203181D01*
X0077239Y0203141D01*
X0077293Y0203099D01*
X0077344Y0203053D01*
X0077393Y0203004D01*
X0077439Y0202953D01*
X0077481Y0202899D01*
X0077521Y0202843D01*
X0077557Y0202784D01*
X0077589Y0202724D01*
X0077618Y0202662D01*
X0077644Y0202598D01*
X0077665Y0202533D01*
X0077683Y0202466D01*
X0077697Y0202399D01*
X0077707Y0202331D01*
X0077713Y0202263D01*
X0077715Y0202194D01*
X0077713Y0202125D01*
X0077707Y0202057D01*
X0077697Y0201989D01*
X0077683Y0201922D01*
X0077665Y0201855D01*
X0077644Y0201790D01*
X0077618Y0201726D01*
X0077589Y0201664D01*
X0077557Y0201603D01*
X0077521Y0201545D01*
X0077481Y0201489D01*
X0077439Y0201435D01*
X0077393Y0201384D01*
X0077344Y0201335D01*
X0077293Y0201289D01*
X0077239Y0201247D01*
X0077183Y0201207D01*
X0077125Y0201171D01*
X0077064Y0201139D01*
X0077002Y0201110D01*
X0076938Y0201084D01*
X0076873Y0201063D01*
X0076806Y0201045D01*
X0076739Y0201031D01*
X0076671Y0201021D01*
X0076603Y0201015D01*
X0076534Y0201013D01*
X0076465Y0201015D01*
X0076397Y0201021D01*
X0076329Y0201031D01*
X0076262Y0201045D01*
X0076195Y0201063D01*
X0076130Y0201084D01*
X0076066Y0201110D01*
X0076004Y0201139D01*
X0075943Y0201171D01*
X0075885Y0201207D01*
X0075829Y0201247D01*
X0075775Y0201289D01*
X0075724Y0201335D01*
X0075675Y0201384D01*
X0075629Y0201435D01*
X0075587Y0201489D01*
X0075547Y0201545D01*
X0075511Y0201603D01*
X0075479Y0201664D01*
X0075450Y0201726D01*
X0075424Y0201790D01*
X0075403Y0201855D01*
X0075385Y0201922D01*
X0075371Y0201989D01*
X0075361Y0202057D01*
X0075355Y0202125D01*
X0075353Y0202194D01*
X0071810Y0204950D02*
X0071812Y0205019D01*
X0071818Y0205087D01*
X0071828Y0205155D01*
X0071842Y0205222D01*
X0071860Y0205289D01*
X0071881Y0205354D01*
X0071907Y0205418D01*
X0071936Y0205480D01*
X0071968Y0205540D01*
X0072004Y0205599D01*
X0072044Y0205655D01*
X0072086Y0205709D01*
X0072132Y0205760D01*
X0072181Y0205809D01*
X0072232Y0205855D01*
X0072286Y0205897D01*
X0072342Y0205937D01*
X0072400Y0205973D01*
X0072461Y0206005D01*
X0072523Y0206034D01*
X0072587Y0206060D01*
X0072652Y0206081D01*
X0072719Y0206099D01*
X0072786Y0206113D01*
X0072854Y0206123D01*
X0072922Y0206129D01*
X0072991Y0206131D01*
X0073060Y0206129D01*
X0073128Y0206123D01*
X0073196Y0206113D01*
X0073263Y0206099D01*
X0073330Y0206081D01*
X0073395Y0206060D01*
X0073459Y0206034D01*
X0073521Y0206005D01*
X0073581Y0205973D01*
X0073640Y0205937D01*
X0073696Y0205897D01*
X0073750Y0205855D01*
X0073801Y0205809D01*
X0073850Y0205760D01*
X0073896Y0205709D01*
X0073938Y0205655D01*
X0073978Y0205599D01*
X0074014Y0205540D01*
X0074046Y0205480D01*
X0074075Y0205418D01*
X0074101Y0205354D01*
X0074122Y0205289D01*
X0074140Y0205222D01*
X0074154Y0205155D01*
X0074164Y0205087D01*
X0074170Y0205019D01*
X0074172Y0204950D01*
X0074170Y0204881D01*
X0074164Y0204813D01*
X0074154Y0204745D01*
X0074140Y0204678D01*
X0074122Y0204611D01*
X0074101Y0204546D01*
X0074075Y0204482D01*
X0074046Y0204420D01*
X0074014Y0204359D01*
X0073978Y0204301D01*
X0073938Y0204245D01*
X0073896Y0204191D01*
X0073850Y0204140D01*
X0073801Y0204091D01*
X0073750Y0204045D01*
X0073696Y0204003D01*
X0073640Y0203963D01*
X0073582Y0203927D01*
X0073521Y0203895D01*
X0073459Y0203866D01*
X0073395Y0203840D01*
X0073330Y0203819D01*
X0073263Y0203801D01*
X0073196Y0203787D01*
X0073128Y0203777D01*
X0073060Y0203771D01*
X0072991Y0203769D01*
X0072922Y0203771D01*
X0072854Y0203777D01*
X0072786Y0203787D01*
X0072719Y0203801D01*
X0072652Y0203819D01*
X0072587Y0203840D01*
X0072523Y0203866D01*
X0072461Y0203895D01*
X0072400Y0203927D01*
X0072342Y0203963D01*
X0072286Y0204003D01*
X0072232Y0204045D01*
X0072181Y0204091D01*
X0072132Y0204140D01*
X0072086Y0204191D01*
X0072044Y0204245D01*
X0072004Y0204301D01*
X0071968Y0204359D01*
X0071936Y0204420D01*
X0071907Y0204482D01*
X0071881Y0204546D01*
X0071860Y0204611D01*
X0071842Y0204678D01*
X0071828Y0204745D01*
X0071818Y0204813D01*
X0071812Y0204881D01*
X0071810Y0204950D01*
X0068266Y0207115D02*
X0068268Y0207184D01*
X0068274Y0207252D01*
X0068284Y0207320D01*
X0068298Y0207387D01*
X0068316Y0207454D01*
X0068337Y0207519D01*
X0068363Y0207583D01*
X0068392Y0207645D01*
X0068424Y0207705D01*
X0068460Y0207764D01*
X0068500Y0207820D01*
X0068542Y0207874D01*
X0068588Y0207925D01*
X0068637Y0207974D01*
X0068688Y0208020D01*
X0068742Y0208062D01*
X0068798Y0208102D01*
X0068856Y0208138D01*
X0068917Y0208170D01*
X0068979Y0208199D01*
X0069043Y0208225D01*
X0069108Y0208246D01*
X0069175Y0208264D01*
X0069242Y0208278D01*
X0069310Y0208288D01*
X0069378Y0208294D01*
X0069447Y0208296D01*
X0069516Y0208294D01*
X0069584Y0208288D01*
X0069652Y0208278D01*
X0069719Y0208264D01*
X0069786Y0208246D01*
X0069851Y0208225D01*
X0069915Y0208199D01*
X0069977Y0208170D01*
X0070037Y0208138D01*
X0070096Y0208102D01*
X0070152Y0208062D01*
X0070206Y0208020D01*
X0070257Y0207974D01*
X0070306Y0207925D01*
X0070352Y0207874D01*
X0070394Y0207820D01*
X0070434Y0207764D01*
X0070470Y0207705D01*
X0070502Y0207645D01*
X0070531Y0207583D01*
X0070557Y0207519D01*
X0070578Y0207454D01*
X0070596Y0207387D01*
X0070610Y0207320D01*
X0070620Y0207252D01*
X0070626Y0207184D01*
X0070628Y0207115D01*
X0070626Y0207046D01*
X0070620Y0206978D01*
X0070610Y0206910D01*
X0070596Y0206843D01*
X0070578Y0206776D01*
X0070557Y0206711D01*
X0070531Y0206647D01*
X0070502Y0206585D01*
X0070470Y0206524D01*
X0070434Y0206466D01*
X0070394Y0206410D01*
X0070352Y0206356D01*
X0070306Y0206305D01*
X0070257Y0206256D01*
X0070206Y0206210D01*
X0070152Y0206168D01*
X0070096Y0206128D01*
X0070038Y0206092D01*
X0069977Y0206060D01*
X0069915Y0206031D01*
X0069851Y0206005D01*
X0069786Y0205984D01*
X0069719Y0205966D01*
X0069652Y0205952D01*
X0069584Y0205942D01*
X0069516Y0205936D01*
X0069447Y0205934D01*
X0069378Y0205936D01*
X0069310Y0205942D01*
X0069242Y0205952D01*
X0069175Y0205966D01*
X0069108Y0205984D01*
X0069043Y0206005D01*
X0068979Y0206031D01*
X0068917Y0206060D01*
X0068856Y0206092D01*
X0068798Y0206128D01*
X0068742Y0206168D01*
X0068688Y0206210D01*
X0068637Y0206256D01*
X0068588Y0206305D01*
X0068542Y0206356D01*
X0068500Y0206410D01*
X0068460Y0206466D01*
X0068424Y0206524D01*
X0068392Y0206585D01*
X0068363Y0206647D01*
X0068337Y0206711D01*
X0068316Y0206776D01*
X0068298Y0206843D01*
X0068284Y0206910D01*
X0068274Y0206978D01*
X0068268Y0207046D01*
X0068266Y0207115D01*
X0064723Y0209083D02*
X0064725Y0209152D01*
X0064731Y0209220D01*
X0064741Y0209288D01*
X0064755Y0209355D01*
X0064773Y0209422D01*
X0064794Y0209487D01*
X0064820Y0209551D01*
X0064849Y0209613D01*
X0064881Y0209673D01*
X0064917Y0209732D01*
X0064957Y0209788D01*
X0064999Y0209842D01*
X0065045Y0209893D01*
X0065094Y0209942D01*
X0065145Y0209988D01*
X0065199Y0210030D01*
X0065255Y0210070D01*
X0065313Y0210106D01*
X0065374Y0210138D01*
X0065436Y0210167D01*
X0065500Y0210193D01*
X0065565Y0210214D01*
X0065632Y0210232D01*
X0065699Y0210246D01*
X0065767Y0210256D01*
X0065835Y0210262D01*
X0065904Y0210264D01*
X0065973Y0210262D01*
X0066041Y0210256D01*
X0066109Y0210246D01*
X0066176Y0210232D01*
X0066243Y0210214D01*
X0066308Y0210193D01*
X0066372Y0210167D01*
X0066434Y0210138D01*
X0066494Y0210106D01*
X0066553Y0210070D01*
X0066609Y0210030D01*
X0066663Y0209988D01*
X0066714Y0209942D01*
X0066763Y0209893D01*
X0066809Y0209842D01*
X0066851Y0209788D01*
X0066891Y0209732D01*
X0066927Y0209673D01*
X0066959Y0209613D01*
X0066988Y0209551D01*
X0067014Y0209487D01*
X0067035Y0209422D01*
X0067053Y0209355D01*
X0067067Y0209288D01*
X0067077Y0209220D01*
X0067083Y0209152D01*
X0067085Y0209083D01*
X0067083Y0209014D01*
X0067077Y0208946D01*
X0067067Y0208878D01*
X0067053Y0208811D01*
X0067035Y0208744D01*
X0067014Y0208679D01*
X0066988Y0208615D01*
X0066959Y0208553D01*
X0066927Y0208492D01*
X0066891Y0208434D01*
X0066851Y0208378D01*
X0066809Y0208324D01*
X0066763Y0208273D01*
X0066714Y0208224D01*
X0066663Y0208178D01*
X0066609Y0208136D01*
X0066553Y0208096D01*
X0066495Y0208060D01*
X0066434Y0208028D01*
X0066372Y0207999D01*
X0066308Y0207973D01*
X0066243Y0207952D01*
X0066176Y0207934D01*
X0066109Y0207920D01*
X0066041Y0207910D01*
X0065973Y0207904D01*
X0065904Y0207902D01*
X0065835Y0207904D01*
X0065767Y0207910D01*
X0065699Y0207920D01*
X0065632Y0207934D01*
X0065565Y0207952D01*
X0065500Y0207973D01*
X0065436Y0207999D01*
X0065374Y0208028D01*
X0065313Y0208060D01*
X0065255Y0208096D01*
X0065199Y0208136D01*
X0065145Y0208178D01*
X0065094Y0208224D01*
X0065045Y0208273D01*
X0064999Y0208324D01*
X0064957Y0208378D01*
X0064917Y0208434D01*
X0064881Y0208492D01*
X0064849Y0208553D01*
X0064820Y0208615D01*
X0064794Y0208679D01*
X0064773Y0208744D01*
X0064755Y0208811D01*
X0064741Y0208878D01*
X0064731Y0208946D01*
X0064725Y0209014D01*
X0064723Y0209083D01*
X0060983Y0210461D02*
X0060985Y0210530D01*
X0060991Y0210598D01*
X0061001Y0210666D01*
X0061015Y0210733D01*
X0061033Y0210800D01*
X0061054Y0210865D01*
X0061080Y0210929D01*
X0061109Y0210991D01*
X0061141Y0211051D01*
X0061177Y0211110D01*
X0061217Y0211166D01*
X0061259Y0211220D01*
X0061305Y0211271D01*
X0061354Y0211320D01*
X0061405Y0211366D01*
X0061459Y0211408D01*
X0061515Y0211448D01*
X0061573Y0211484D01*
X0061634Y0211516D01*
X0061696Y0211545D01*
X0061760Y0211571D01*
X0061825Y0211592D01*
X0061892Y0211610D01*
X0061959Y0211624D01*
X0062027Y0211634D01*
X0062095Y0211640D01*
X0062164Y0211642D01*
X0062233Y0211640D01*
X0062301Y0211634D01*
X0062369Y0211624D01*
X0062436Y0211610D01*
X0062503Y0211592D01*
X0062568Y0211571D01*
X0062632Y0211545D01*
X0062694Y0211516D01*
X0062754Y0211484D01*
X0062813Y0211448D01*
X0062869Y0211408D01*
X0062923Y0211366D01*
X0062974Y0211320D01*
X0063023Y0211271D01*
X0063069Y0211220D01*
X0063111Y0211166D01*
X0063151Y0211110D01*
X0063187Y0211051D01*
X0063219Y0210991D01*
X0063248Y0210929D01*
X0063274Y0210865D01*
X0063295Y0210800D01*
X0063313Y0210733D01*
X0063327Y0210666D01*
X0063337Y0210598D01*
X0063343Y0210530D01*
X0063345Y0210461D01*
X0063343Y0210392D01*
X0063337Y0210324D01*
X0063327Y0210256D01*
X0063313Y0210189D01*
X0063295Y0210122D01*
X0063274Y0210057D01*
X0063248Y0209993D01*
X0063219Y0209931D01*
X0063187Y0209870D01*
X0063151Y0209812D01*
X0063111Y0209756D01*
X0063069Y0209702D01*
X0063023Y0209651D01*
X0062974Y0209602D01*
X0062923Y0209556D01*
X0062869Y0209514D01*
X0062813Y0209474D01*
X0062755Y0209438D01*
X0062694Y0209406D01*
X0062632Y0209377D01*
X0062568Y0209351D01*
X0062503Y0209330D01*
X0062436Y0209312D01*
X0062369Y0209298D01*
X0062301Y0209288D01*
X0062233Y0209282D01*
X0062164Y0209280D01*
X0062095Y0209282D01*
X0062027Y0209288D01*
X0061959Y0209298D01*
X0061892Y0209312D01*
X0061825Y0209330D01*
X0061760Y0209351D01*
X0061696Y0209377D01*
X0061634Y0209406D01*
X0061573Y0209438D01*
X0061515Y0209474D01*
X0061459Y0209514D01*
X0061405Y0209556D01*
X0061354Y0209602D01*
X0061305Y0209651D01*
X0061259Y0209702D01*
X0061217Y0209756D01*
X0061177Y0209812D01*
X0061141Y0209870D01*
X0061109Y0209931D01*
X0061080Y0209993D01*
X0061054Y0210057D01*
X0061033Y0210122D01*
X0061015Y0210189D01*
X0061001Y0210256D01*
X0060991Y0210324D01*
X0060985Y0210392D01*
X0060983Y0210461D01*
X0056849Y0211643D02*
X0056851Y0211712D01*
X0056857Y0211780D01*
X0056867Y0211848D01*
X0056881Y0211915D01*
X0056899Y0211982D01*
X0056920Y0212047D01*
X0056946Y0212111D01*
X0056975Y0212173D01*
X0057007Y0212233D01*
X0057043Y0212292D01*
X0057083Y0212348D01*
X0057125Y0212402D01*
X0057171Y0212453D01*
X0057220Y0212502D01*
X0057271Y0212548D01*
X0057325Y0212590D01*
X0057381Y0212630D01*
X0057439Y0212666D01*
X0057500Y0212698D01*
X0057562Y0212727D01*
X0057626Y0212753D01*
X0057691Y0212774D01*
X0057758Y0212792D01*
X0057825Y0212806D01*
X0057893Y0212816D01*
X0057961Y0212822D01*
X0058030Y0212824D01*
X0058099Y0212822D01*
X0058167Y0212816D01*
X0058235Y0212806D01*
X0058302Y0212792D01*
X0058369Y0212774D01*
X0058434Y0212753D01*
X0058498Y0212727D01*
X0058560Y0212698D01*
X0058620Y0212666D01*
X0058679Y0212630D01*
X0058735Y0212590D01*
X0058789Y0212548D01*
X0058840Y0212502D01*
X0058889Y0212453D01*
X0058935Y0212402D01*
X0058977Y0212348D01*
X0059017Y0212292D01*
X0059053Y0212233D01*
X0059085Y0212173D01*
X0059114Y0212111D01*
X0059140Y0212047D01*
X0059161Y0211982D01*
X0059179Y0211915D01*
X0059193Y0211848D01*
X0059203Y0211780D01*
X0059209Y0211712D01*
X0059211Y0211643D01*
X0059209Y0211574D01*
X0059203Y0211506D01*
X0059193Y0211438D01*
X0059179Y0211371D01*
X0059161Y0211304D01*
X0059140Y0211239D01*
X0059114Y0211175D01*
X0059085Y0211113D01*
X0059053Y0211052D01*
X0059017Y0210994D01*
X0058977Y0210938D01*
X0058935Y0210884D01*
X0058889Y0210833D01*
X0058840Y0210784D01*
X0058789Y0210738D01*
X0058735Y0210696D01*
X0058679Y0210656D01*
X0058621Y0210620D01*
X0058560Y0210588D01*
X0058498Y0210559D01*
X0058434Y0210533D01*
X0058369Y0210512D01*
X0058302Y0210494D01*
X0058235Y0210480D01*
X0058167Y0210470D01*
X0058099Y0210464D01*
X0058030Y0210462D01*
X0057961Y0210464D01*
X0057893Y0210470D01*
X0057825Y0210480D01*
X0057758Y0210494D01*
X0057691Y0210512D01*
X0057626Y0210533D01*
X0057562Y0210559D01*
X0057500Y0210588D01*
X0057439Y0210620D01*
X0057381Y0210656D01*
X0057325Y0210696D01*
X0057271Y0210738D01*
X0057220Y0210784D01*
X0057171Y0210833D01*
X0057125Y0210884D01*
X0057083Y0210938D01*
X0057043Y0210994D01*
X0057007Y0211052D01*
X0056975Y0211113D01*
X0056946Y0211175D01*
X0056920Y0211239D01*
X0056899Y0211304D01*
X0056881Y0211371D01*
X0056867Y0211438D01*
X0056857Y0211506D01*
X0056851Y0211574D01*
X0056849Y0211643D01*
X0052715Y0212430D02*
X0052717Y0212499D01*
X0052723Y0212567D01*
X0052733Y0212635D01*
X0052747Y0212702D01*
X0052765Y0212769D01*
X0052786Y0212834D01*
X0052812Y0212898D01*
X0052841Y0212960D01*
X0052873Y0213020D01*
X0052909Y0213079D01*
X0052949Y0213135D01*
X0052991Y0213189D01*
X0053037Y0213240D01*
X0053086Y0213289D01*
X0053137Y0213335D01*
X0053191Y0213377D01*
X0053247Y0213417D01*
X0053305Y0213453D01*
X0053366Y0213485D01*
X0053428Y0213514D01*
X0053492Y0213540D01*
X0053557Y0213561D01*
X0053624Y0213579D01*
X0053691Y0213593D01*
X0053759Y0213603D01*
X0053827Y0213609D01*
X0053896Y0213611D01*
X0053965Y0213609D01*
X0054033Y0213603D01*
X0054101Y0213593D01*
X0054168Y0213579D01*
X0054235Y0213561D01*
X0054300Y0213540D01*
X0054364Y0213514D01*
X0054426Y0213485D01*
X0054486Y0213453D01*
X0054545Y0213417D01*
X0054601Y0213377D01*
X0054655Y0213335D01*
X0054706Y0213289D01*
X0054755Y0213240D01*
X0054801Y0213189D01*
X0054843Y0213135D01*
X0054883Y0213079D01*
X0054919Y0213020D01*
X0054951Y0212960D01*
X0054980Y0212898D01*
X0055006Y0212834D01*
X0055027Y0212769D01*
X0055045Y0212702D01*
X0055059Y0212635D01*
X0055069Y0212567D01*
X0055075Y0212499D01*
X0055077Y0212430D01*
X0055075Y0212361D01*
X0055069Y0212293D01*
X0055059Y0212225D01*
X0055045Y0212158D01*
X0055027Y0212091D01*
X0055006Y0212026D01*
X0054980Y0211962D01*
X0054951Y0211900D01*
X0054919Y0211839D01*
X0054883Y0211781D01*
X0054843Y0211725D01*
X0054801Y0211671D01*
X0054755Y0211620D01*
X0054706Y0211571D01*
X0054655Y0211525D01*
X0054601Y0211483D01*
X0054545Y0211443D01*
X0054487Y0211407D01*
X0054426Y0211375D01*
X0054364Y0211346D01*
X0054300Y0211320D01*
X0054235Y0211299D01*
X0054168Y0211281D01*
X0054101Y0211267D01*
X0054033Y0211257D01*
X0053965Y0211251D01*
X0053896Y0211249D01*
X0053827Y0211251D01*
X0053759Y0211257D01*
X0053691Y0211267D01*
X0053624Y0211281D01*
X0053557Y0211299D01*
X0053492Y0211320D01*
X0053428Y0211346D01*
X0053366Y0211375D01*
X0053305Y0211407D01*
X0053247Y0211443D01*
X0053191Y0211483D01*
X0053137Y0211525D01*
X0053086Y0211571D01*
X0053037Y0211620D01*
X0052991Y0211671D01*
X0052949Y0211725D01*
X0052909Y0211781D01*
X0052873Y0211839D01*
X0052841Y0211900D01*
X0052812Y0211962D01*
X0052786Y0212026D01*
X0052765Y0212091D01*
X0052747Y0212158D01*
X0052733Y0212225D01*
X0052723Y0212293D01*
X0052717Y0212361D01*
X0052715Y0212430D01*
X0048581Y0212430D02*
X0048583Y0212499D01*
X0048589Y0212567D01*
X0048599Y0212635D01*
X0048613Y0212702D01*
X0048631Y0212769D01*
X0048652Y0212834D01*
X0048678Y0212898D01*
X0048707Y0212960D01*
X0048739Y0213020D01*
X0048775Y0213079D01*
X0048815Y0213135D01*
X0048857Y0213189D01*
X0048903Y0213240D01*
X0048952Y0213289D01*
X0049003Y0213335D01*
X0049057Y0213377D01*
X0049113Y0213417D01*
X0049171Y0213453D01*
X0049232Y0213485D01*
X0049294Y0213514D01*
X0049358Y0213540D01*
X0049423Y0213561D01*
X0049490Y0213579D01*
X0049557Y0213593D01*
X0049625Y0213603D01*
X0049693Y0213609D01*
X0049762Y0213611D01*
X0049831Y0213609D01*
X0049899Y0213603D01*
X0049967Y0213593D01*
X0050034Y0213579D01*
X0050101Y0213561D01*
X0050166Y0213540D01*
X0050230Y0213514D01*
X0050292Y0213485D01*
X0050352Y0213453D01*
X0050411Y0213417D01*
X0050467Y0213377D01*
X0050521Y0213335D01*
X0050572Y0213289D01*
X0050621Y0213240D01*
X0050667Y0213189D01*
X0050709Y0213135D01*
X0050749Y0213079D01*
X0050785Y0213020D01*
X0050817Y0212960D01*
X0050846Y0212898D01*
X0050872Y0212834D01*
X0050893Y0212769D01*
X0050911Y0212702D01*
X0050925Y0212635D01*
X0050935Y0212567D01*
X0050941Y0212499D01*
X0050943Y0212430D01*
X0050941Y0212361D01*
X0050935Y0212293D01*
X0050925Y0212225D01*
X0050911Y0212158D01*
X0050893Y0212091D01*
X0050872Y0212026D01*
X0050846Y0211962D01*
X0050817Y0211900D01*
X0050785Y0211839D01*
X0050749Y0211781D01*
X0050709Y0211725D01*
X0050667Y0211671D01*
X0050621Y0211620D01*
X0050572Y0211571D01*
X0050521Y0211525D01*
X0050467Y0211483D01*
X0050411Y0211443D01*
X0050353Y0211407D01*
X0050292Y0211375D01*
X0050230Y0211346D01*
X0050166Y0211320D01*
X0050101Y0211299D01*
X0050034Y0211281D01*
X0049967Y0211267D01*
X0049899Y0211257D01*
X0049831Y0211251D01*
X0049762Y0211249D01*
X0049693Y0211251D01*
X0049625Y0211257D01*
X0049557Y0211267D01*
X0049490Y0211281D01*
X0049423Y0211299D01*
X0049358Y0211320D01*
X0049294Y0211346D01*
X0049232Y0211375D01*
X0049171Y0211407D01*
X0049113Y0211443D01*
X0049057Y0211483D01*
X0049003Y0211525D01*
X0048952Y0211571D01*
X0048903Y0211620D01*
X0048857Y0211671D01*
X0048815Y0211725D01*
X0048775Y0211781D01*
X0048739Y0211839D01*
X0048707Y0211900D01*
X0048678Y0211962D01*
X0048652Y0212026D01*
X0048631Y0212091D01*
X0048613Y0212158D01*
X0048599Y0212225D01*
X0048589Y0212293D01*
X0048583Y0212361D01*
X0048581Y0212430D01*
X0044251Y0212233D02*
X0044253Y0212302D01*
X0044259Y0212370D01*
X0044269Y0212438D01*
X0044283Y0212505D01*
X0044301Y0212572D01*
X0044322Y0212637D01*
X0044348Y0212701D01*
X0044377Y0212763D01*
X0044409Y0212823D01*
X0044445Y0212882D01*
X0044485Y0212938D01*
X0044527Y0212992D01*
X0044573Y0213043D01*
X0044622Y0213092D01*
X0044673Y0213138D01*
X0044727Y0213180D01*
X0044783Y0213220D01*
X0044841Y0213256D01*
X0044902Y0213288D01*
X0044964Y0213317D01*
X0045028Y0213343D01*
X0045093Y0213364D01*
X0045160Y0213382D01*
X0045227Y0213396D01*
X0045295Y0213406D01*
X0045363Y0213412D01*
X0045432Y0213414D01*
X0045501Y0213412D01*
X0045569Y0213406D01*
X0045637Y0213396D01*
X0045704Y0213382D01*
X0045771Y0213364D01*
X0045836Y0213343D01*
X0045900Y0213317D01*
X0045962Y0213288D01*
X0046022Y0213256D01*
X0046081Y0213220D01*
X0046137Y0213180D01*
X0046191Y0213138D01*
X0046242Y0213092D01*
X0046291Y0213043D01*
X0046337Y0212992D01*
X0046379Y0212938D01*
X0046419Y0212882D01*
X0046455Y0212823D01*
X0046487Y0212763D01*
X0046516Y0212701D01*
X0046542Y0212637D01*
X0046563Y0212572D01*
X0046581Y0212505D01*
X0046595Y0212438D01*
X0046605Y0212370D01*
X0046611Y0212302D01*
X0046613Y0212233D01*
X0046611Y0212164D01*
X0046605Y0212096D01*
X0046595Y0212028D01*
X0046581Y0211961D01*
X0046563Y0211894D01*
X0046542Y0211829D01*
X0046516Y0211765D01*
X0046487Y0211703D01*
X0046455Y0211642D01*
X0046419Y0211584D01*
X0046379Y0211528D01*
X0046337Y0211474D01*
X0046291Y0211423D01*
X0046242Y0211374D01*
X0046191Y0211328D01*
X0046137Y0211286D01*
X0046081Y0211246D01*
X0046023Y0211210D01*
X0045962Y0211178D01*
X0045900Y0211149D01*
X0045836Y0211123D01*
X0045771Y0211102D01*
X0045704Y0211084D01*
X0045637Y0211070D01*
X0045569Y0211060D01*
X0045501Y0211054D01*
X0045432Y0211052D01*
X0045363Y0211054D01*
X0045295Y0211060D01*
X0045227Y0211070D01*
X0045160Y0211084D01*
X0045093Y0211102D01*
X0045028Y0211123D01*
X0044964Y0211149D01*
X0044902Y0211178D01*
X0044841Y0211210D01*
X0044783Y0211246D01*
X0044727Y0211286D01*
X0044673Y0211328D01*
X0044622Y0211374D01*
X0044573Y0211423D01*
X0044527Y0211474D01*
X0044485Y0211528D01*
X0044445Y0211584D01*
X0044409Y0211642D01*
X0044377Y0211703D01*
X0044348Y0211765D01*
X0044322Y0211829D01*
X0044301Y0211894D01*
X0044283Y0211961D01*
X0044269Y0212028D01*
X0044259Y0212096D01*
X0044253Y0212164D01*
X0044251Y0212233D01*
X0040117Y0211643D02*
X0040119Y0211712D01*
X0040125Y0211780D01*
X0040135Y0211848D01*
X0040149Y0211915D01*
X0040167Y0211982D01*
X0040188Y0212047D01*
X0040214Y0212111D01*
X0040243Y0212173D01*
X0040275Y0212233D01*
X0040311Y0212292D01*
X0040351Y0212348D01*
X0040393Y0212402D01*
X0040439Y0212453D01*
X0040488Y0212502D01*
X0040539Y0212548D01*
X0040593Y0212590D01*
X0040649Y0212630D01*
X0040707Y0212666D01*
X0040768Y0212698D01*
X0040830Y0212727D01*
X0040894Y0212753D01*
X0040959Y0212774D01*
X0041026Y0212792D01*
X0041093Y0212806D01*
X0041161Y0212816D01*
X0041229Y0212822D01*
X0041298Y0212824D01*
X0041367Y0212822D01*
X0041435Y0212816D01*
X0041503Y0212806D01*
X0041570Y0212792D01*
X0041637Y0212774D01*
X0041702Y0212753D01*
X0041766Y0212727D01*
X0041828Y0212698D01*
X0041888Y0212666D01*
X0041947Y0212630D01*
X0042003Y0212590D01*
X0042057Y0212548D01*
X0042108Y0212502D01*
X0042157Y0212453D01*
X0042203Y0212402D01*
X0042245Y0212348D01*
X0042285Y0212292D01*
X0042321Y0212233D01*
X0042353Y0212173D01*
X0042382Y0212111D01*
X0042408Y0212047D01*
X0042429Y0211982D01*
X0042447Y0211915D01*
X0042461Y0211848D01*
X0042471Y0211780D01*
X0042477Y0211712D01*
X0042479Y0211643D01*
X0042477Y0211574D01*
X0042471Y0211506D01*
X0042461Y0211438D01*
X0042447Y0211371D01*
X0042429Y0211304D01*
X0042408Y0211239D01*
X0042382Y0211175D01*
X0042353Y0211113D01*
X0042321Y0211052D01*
X0042285Y0210994D01*
X0042245Y0210938D01*
X0042203Y0210884D01*
X0042157Y0210833D01*
X0042108Y0210784D01*
X0042057Y0210738D01*
X0042003Y0210696D01*
X0041947Y0210656D01*
X0041889Y0210620D01*
X0041828Y0210588D01*
X0041766Y0210559D01*
X0041702Y0210533D01*
X0041637Y0210512D01*
X0041570Y0210494D01*
X0041503Y0210480D01*
X0041435Y0210470D01*
X0041367Y0210464D01*
X0041298Y0210462D01*
X0041229Y0210464D01*
X0041161Y0210470D01*
X0041093Y0210480D01*
X0041026Y0210494D01*
X0040959Y0210512D01*
X0040894Y0210533D01*
X0040830Y0210559D01*
X0040768Y0210588D01*
X0040707Y0210620D01*
X0040649Y0210656D01*
X0040593Y0210696D01*
X0040539Y0210738D01*
X0040488Y0210784D01*
X0040439Y0210833D01*
X0040393Y0210884D01*
X0040351Y0210938D01*
X0040311Y0210994D01*
X0040275Y0211052D01*
X0040243Y0211113D01*
X0040214Y0211175D01*
X0040188Y0211239D01*
X0040167Y0211304D01*
X0040149Y0211371D01*
X0040135Y0211438D01*
X0040125Y0211506D01*
X0040119Y0211574D01*
X0040117Y0211643D01*
X0036180Y0210461D02*
X0036182Y0210530D01*
X0036188Y0210598D01*
X0036198Y0210666D01*
X0036212Y0210733D01*
X0036230Y0210800D01*
X0036251Y0210865D01*
X0036277Y0210929D01*
X0036306Y0210991D01*
X0036338Y0211051D01*
X0036374Y0211110D01*
X0036414Y0211166D01*
X0036456Y0211220D01*
X0036502Y0211271D01*
X0036551Y0211320D01*
X0036602Y0211366D01*
X0036656Y0211408D01*
X0036712Y0211448D01*
X0036770Y0211484D01*
X0036831Y0211516D01*
X0036893Y0211545D01*
X0036957Y0211571D01*
X0037022Y0211592D01*
X0037089Y0211610D01*
X0037156Y0211624D01*
X0037224Y0211634D01*
X0037292Y0211640D01*
X0037361Y0211642D01*
X0037430Y0211640D01*
X0037498Y0211634D01*
X0037566Y0211624D01*
X0037633Y0211610D01*
X0037700Y0211592D01*
X0037765Y0211571D01*
X0037829Y0211545D01*
X0037891Y0211516D01*
X0037951Y0211484D01*
X0038010Y0211448D01*
X0038066Y0211408D01*
X0038120Y0211366D01*
X0038171Y0211320D01*
X0038220Y0211271D01*
X0038266Y0211220D01*
X0038308Y0211166D01*
X0038348Y0211110D01*
X0038384Y0211051D01*
X0038416Y0210991D01*
X0038445Y0210929D01*
X0038471Y0210865D01*
X0038492Y0210800D01*
X0038510Y0210733D01*
X0038524Y0210666D01*
X0038534Y0210598D01*
X0038540Y0210530D01*
X0038542Y0210461D01*
X0038540Y0210392D01*
X0038534Y0210324D01*
X0038524Y0210256D01*
X0038510Y0210189D01*
X0038492Y0210122D01*
X0038471Y0210057D01*
X0038445Y0209993D01*
X0038416Y0209931D01*
X0038384Y0209870D01*
X0038348Y0209812D01*
X0038308Y0209756D01*
X0038266Y0209702D01*
X0038220Y0209651D01*
X0038171Y0209602D01*
X0038120Y0209556D01*
X0038066Y0209514D01*
X0038010Y0209474D01*
X0037952Y0209438D01*
X0037891Y0209406D01*
X0037829Y0209377D01*
X0037765Y0209351D01*
X0037700Y0209330D01*
X0037633Y0209312D01*
X0037566Y0209298D01*
X0037498Y0209288D01*
X0037430Y0209282D01*
X0037361Y0209280D01*
X0037292Y0209282D01*
X0037224Y0209288D01*
X0037156Y0209298D01*
X0037089Y0209312D01*
X0037022Y0209330D01*
X0036957Y0209351D01*
X0036893Y0209377D01*
X0036831Y0209406D01*
X0036770Y0209438D01*
X0036712Y0209474D01*
X0036656Y0209514D01*
X0036602Y0209556D01*
X0036551Y0209602D01*
X0036502Y0209651D01*
X0036456Y0209702D01*
X0036414Y0209756D01*
X0036374Y0209812D01*
X0036338Y0209870D01*
X0036306Y0209931D01*
X0036277Y0209993D01*
X0036251Y0210057D01*
X0036230Y0210122D01*
X0036212Y0210189D01*
X0036198Y0210256D01*
X0036188Y0210324D01*
X0036182Y0210392D01*
X0036180Y0210461D01*
X0032440Y0208887D02*
X0032442Y0208956D01*
X0032448Y0209024D01*
X0032458Y0209092D01*
X0032472Y0209159D01*
X0032490Y0209226D01*
X0032511Y0209291D01*
X0032537Y0209355D01*
X0032566Y0209417D01*
X0032598Y0209477D01*
X0032634Y0209536D01*
X0032674Y0209592D01*
X0032716Y0209646D01*
X0032762Y0209697D01*
X0032811Y0209746D01*
X0032862Y0209792D01*
X0032916Y0209834D01*
X0032972Y0209874D01*
X0033030Y0209910D01*
X0033091Y0209942D01*
X0033153Y0209971D01*
X0033217Y0209997D01*
X0033282Y0210018D01*
X0033349Y0210036D01*
X0033416Y0210050D01*
X0033484Y0210060D01*
X0033552Y0210066D01*
X0033621Y0210068D01*
X0033690Y0210066D01*
X0033758Y0210060D01*
X0033826Y0210050D01*
X0033893Y0210036D01*
X0033960Y0210018D01*
X0034025Y0209997D01*
X0034089Y0209971D01*
X0034151Y0209942D01*
X0034211Y0209910D01*
X0034270Y0209874D01*
X0034326Y0209834D01*
X0034380Y0209792D01*
X0034431Y0209746D01*
X0034480Y0209697D01*
X0034526Y0209646D01*
X0034568Y0209592D01*
X0034608Y0209536D01*
X0034644Y0209477D01*
X0034676Y0209417D01*
X0034705Y0209355D01*
X0034731Y0209291D01*
X0034752Y0209226D01*
X0034770Y0209159D01*
X0034784Y0209092D01*
X0034794Y0209024D01*
X0034800Y0208956D01*
X0034802Y0208887D01*
X0034800Y0208818D01*
X0034794Y0208750D01*
X0034784Y0208682D01*
X0034770Y0208615D01*
X0034752Y0208548D01*
X0034731Y0208483D01*
X0034705Y0208419D01*
X0034676Y0208357D01*
X0034644Y0208296D01*
X0034608Y0208238D01*
X0034568Y0208182D01*
X0034526Y0208128D01*
X0034480Y0208077D01*
X0034431Y0208028D01*
X0034380Y0207982D01*
X0034326Y0207940D01*
X0034270Y0207900D01*
X0034212Y0207864D01*
X0034151Y0207832D01*
X0034089Y0207803D01*
X0034025Y0207777D01*
X0033960Y0207756D01*
X0033893Y0207738D01*
X0033826Y0207724D01*
X0033758Y0207714D01*
X0033690Y0207708D01*
X0033621Y0207706D01*
X0033552Y0207708D01*
X0033484Y0207714D01*
X0033416Y0207724D01*
X0033349Y0207738D01*
X0033282Y0207756D01*
X0033217Y0207777D01*
X0033153Y0207803D01*
X0033091Y0207832D01*
X0033030Y0207864D01*
X0032972Y0207900D01*
X0032916Y0207940D01*
X0032862Y0207982D01*
X0032811Y0208028D01*
X0032762Y0208077D01*
X0032716Y0208128D01*
X0032674Y0208182D01*
X0032634Y0208238D01*
X0032598Y0208296D01*
X0032566Y0208357D01*
X0032537Y0208419D01*
X0032511Y0208483D01*
X0032490Y0208548D01*
X0032472Y0208615D01*
X0032458Y0208682D01*
X0032448Y0208750D01*
X0032442Y0208818D01*
X0032440Y0208887D01*
X0028700Y0206918D02*
X0028702Y0206987D01*
X0028708Y0207055D01*
X0028718Y0207123D01*
X0028732Y0207190D01*
X0028750Y0207257D01*
X0028771Y0207322D01*
X0028797Y0207386D01*
X0028826Y0207448D01*
X0028858Y0207508D01*
X0028894Y0207567D01*
X0028934Y0207623D01*
X0028976Y0207677D01*
X0029022Y0207728D01*
X0029071Y0207777D01*
X0029122Y0207823D01*
X0029176Y0207865D01*
X0029232Y0207905D01*
X0029290Y0207941D01*
X0029351Y0207973D01*
X0029413Y0208002D01*
X0029477Y0208028D01*
X0029542Y0208049D01*
X0029609Y0208067D01*
X0029676Y0208081D01*
X0029744Y0208091D01*
X0029812Y0208097D01*
X0029881Y0208099D01*
X0029950Y0208097D01*
X0030018Y0208091D01*
X0030086Y0208081D01*
X0030153Y0208067D01*
X0030220Y0208049D01*
X0030285Y0208028D01*
X0030349Y0208002D01*
X0030411Y0207973D01*
X0030471Y0207941D01*
X0030530Y0207905D01*
X0030586Y0207865D01*
X0030640Y0207823D01*
X0030691Y0207777D01*
X0030740Y0207728D01*
X0030786Y0207677D01*
X0030828Y0207623D01*
X0030868Y0207567D01*
X0030904Y0207508D01*
X0030936Y0207448D01*
X0030965Y0207386D01*
X0030991Y0207322D01*
X0031012Y0207257D01*
X0031030Y0207190D01*
X0031044Y0207123D01*
X0031054Y0207055D01*
X0031060Y0206987D01*
X0031062Y0206918D01*
X0031060Y0206849D01*
X0031054Y0206781D01*
X0031044Y0206713D01*
X0031030Y0206646D01*
X0031012Y0206579D01*
X0030991Y0206514D01*
X0030965Y0206450D01*
X0030936Y0206388D01*
X0030904Y0206327D01*
X0030868Y0206269D01*
X0030828Y0206213D01*
X0030786Y0206159D01*
X0030740Y0206108D01*
X0030691Y0206059D01*
X0030640Y0206013D01*
X0030586Y0205971D01*
X0030530Y0205931D01*
X0030472Y0205895D01*
X0030411Y0205863D01*
X0030349Y0205834D01*
X0030285Y0205808D01*
X0030220Y0205787D01*
X0030153Y0205769D01*
X0030086Y0205755D01*
X0030018Y0205745D01*
X0029950Y0205739D01*
X0029881Y0205737D01*
X0029812Y0205739D01*
X0029744Y0205745D01*
X0029676Y0205755D01*
X0029609Y0205769D01*
X0029542Y0205787D01*
X0029477Y0205808D01*
X0029413Y0205834D01*
X0029351Y0205863D01*
X0029290Y0205895D01*
X0029232Y0205931D01*
X0029176Y0205971D01*
X0029122Y0206013D01*
X0029071Y0206059D01*
X0029022Y0206108D01*
X0028976Y0206159D01*
X0028934Y0206213D01*
X0028894Y0206269D01*
X0028858Y0206327D01*
X0028826Y0206388D01*
X0028797Y0206450D01*
X0028771Y0206514D01*
X0028750Y0206579D01*
X0028732Y0206646D01*
X0028718Y0206713D01*
X0028708Y0206781D01*
X0028702Y0206849D01*
X0028700Y0206918D01*
X0024959Y0204556D02*
X0024961Y0204625D01*
X0024967Y0204693D01*
X0024977Y0204761D01*
X0024991Y0204828D01*
X0025009Y0204895D01*
X0025030Y0204960D01*
X0025056Y0205024D01*
X0025085Y0205086D01*
X0025117Y0205146D01*
X0025153Y0205205D01*
X0025193Y0205261D01*
X0025235Y0205315D01*
X0025281Y0205366D01*
X0025330Y0205415D01*
X0025381Y0205461D01*
X0025435Y0205503D01*
X0025491Y0205543D01*
X0025549Y0205579D01*
X0025610Y0205611D01*
X0025672Y0205640D01*
X0025736Y0205666D01*
X0025801Y0205687D01*
X0025868Y0205705D01*
X0025935Y0205719D01*
X0026003Y0205729D01*
X0026071Y0205735D01*
X0026140Y0205737D01*
X0026209Y0205735D01*
X0026277Y0205729D01*
X0026345Y0205719D01*
X0026412Y0205705D01*
X0026479Y0205687D01*
X0026544Y0205666D01*
X0026608Y0205640D01*
X0026670Y0205611D01*
X0026730Y0205579D01*
X0026789Y0205543D01*
X0026845Y0205503D01*
X0026899Y0205461D01*
X0026950Y0205415D01*
X0026999Y0205366D01*
X0027045Y0205315D01*
X0027087Y0205261D01*
X0027127Y0205205D01*
X0027163Y0205146D01*
X0027195Y0205086D01*
X0027224Y0205024D01*
X0027250Y0204960D01*
X0027271Y0204895D01*
X0027289Y0204828D01*
X0027303Y0204761D01*
X0027313Y0204693D01*
X0027319Y0204625D01*
X0027321Y0204556D01*
X0027319Y0204487D01*
X0027313Y0204419D01*
X0027303Y0204351D01*
X0027289Y0204284D01*
X0027271Y0204217D01*
X0027250Y0204152D01*
X0027224Y0204088D01*
X0027195Y0204026D01*
X0027163Y0203965D01*
X0027127Y0203907D01*
X0027087Y0203851D01*
X0027045Y0203797D01*
X0026999Y0203746D01*
X0026950Y0203697D01*
X0026899Y0203651D01*
X0026845Y0203609D01*
X0026789Y0203569D01*
X0026731Y0203533D01*
X0026670Y0203501D01*
X0026608Y0203472D01*
X0026544Y0203446D01*
X0026479Y0203425D01*
X0026412Y0203407D01*
X0026345Y0203393D01*
X0026277Y0203383D01*
X0026209Y0203377D01*
X0026140Y0203375D01*
X0026071Y0203377D01*
X0026003Y0203383D01*
X0025935Y0203393D01*
X0025868Y0203407D01*
X0025801Y0203425D01*
X0025736Y0203446D01*
X0025672Y0203472D01*
X0025610Y0203501D01*
X0025549Y0203533D01*
X0025491Y0203569D01*
X0025435Y0203609D01*
X0025381Y0203651D01*
X0025330Y0203697D01*
X0025281Y0203746D01*
X0025235Y0203797D01*
X0025193Y0203851D01*
X0025153Y0203907D01*
X0025117Y0203965D01*
X0025085Y0204026D01*
X0025056Y0204088D01*
X0025030Y0204152D01*
X0025009Y0204217D01*
X0024991Y0204284D01*
X0024977Y0204351D01*
X0024967Y0204419D01*
X0024961Y0204487D01*
X0024959Y0204556D01*
X0388345Y0025422D02*
X0388347Y0025615D01*
X0388354Y0025808D01*
X0388366Y0026001D01*
X0388383Y0026194D01*
X0388404Y0026386D01*
X0388430Y0026577D01*
X0388461Y0026768D01*
X0388496Y0026958D01*
X0388536Y0027147D01*
X0388581Y0027335D01*
X0388630Y0027522D01*
X0388684Y0027708D01*
X0388742Y0027892D01*
X0388805Y0028075D01*
X0388873Y0028256D01*
X0388944Y0028435D01*
X0389021Y0028613D01*
X0389101Y0028789D01*
X0389186Y0028962D01*
X0389275Y0029134D01*
X0389368Y0029303D01*
X0389465Y0029470D01*
X0389567Y0029635D01*
X0389672Y0029797D01*
X0389781Y0029956D01*
X0389895Y0030113D01*
X0390012Y0030266D01*
X0390132Y0030417D01*
X0390257Y0030565D01*
X0390385Y0030710D01*
X0390516Y0030851D01*
X0390651Y0030990D01*
X0390790Y0031125D01*
X0390931Y0031256D01*
X0391076Y0031384D01*
X0391224Y0031509D01*
X0391375Y0031629D01*
X0391528Y0031746D01*
X0391685Y0031860D01*
X0391844Y0031969D01*
X0392006Y0032074D01*
X0392171Y0032176D01*
X0392338Y0032273D01*
X0392507Y0032366D01*
X0392679Y0032455D01*
X0392852Y0032540D01*
X0393028Y0032620D01*
X0393206Y0032697D01*
X0393385Y0032768D01*
X0393566Y0032836D01*
X0393749Y0032899D01*
X0393933Y0032957D01*
X0394119Y0033011D01*
X0394306Y0033060D01*
X0394494Y0033105D01*
X0394683Y0033145D01*
X0394873Y0033180D01*
X0395064Y0033211D01*
X0395255Y0033237D01*
X0395447Y0033258D01*
X0395640Y0033275D01*
X0395833Y0033287D01*
X0396026Y0033294D01*
X0396219Y0033296D01*
X0396412Y0033294D01*
X0396605Y0033287D01*
X0396798Y0033275D01*
X0396991Y0033258D01*
X0397183Y0033237D01*
X0397374Y0033211D01*
X0397565Y0033180D01*
X0397755Y0033145D01*
X0397944Y0033105D01*
X0398132Y0033060D01*
X0398319Y0033011D01*
X0398505Y0032957D01*
X0398689Y0032899D01*
X0398872Y0032836D01*
X0399053Y0032768D01*
X0399232Y0032697D01*
X0399410Y0032620D01*
X0399586Y0032540D01*
X0399759Y0032455D01*
X0399931Y0032366D01*
X0400100Y0032273D01*
X0400267Y0032176D01*
X0400432Y0032074D01*
X0400594Y0031969D01*
X0400753Y0031860D01*
X0400910Y0031746D01*
X0401063Y0031629D01*
X0401214Y0031509D01*
X0401362Y0031384D01*
X0401507Y0031256D01*
X0401648Y0031125D01*
X0401787Y0030990D01*
X0401922Y0030851D01*
X0402053Y0030710D01*
X0402181Y0030565D01*
X0402306Y0030417D01*
X0402426Y0030266D01*
X0402543Y0030113D01*
X0402657Y0029956D01*
X0402766Y0029797D01*
X0402871Y0029635D01*
X0402973Y0029470D01*
X0403070Y0029303D01*
X0403163Y0029134D01*
X0403252Y0028962D01*
X0403337Y0028789D01*
X0403417Y0028613D01*
X0403494Y0028435D01*
X0403565Y0028256D01*
X0403633Y0028075D01*
X0403696Y0027892D01*
X0403754Y0027708D01*
X0403808Y0027522D01*
X0403857Y0027335D01*
X0403902Y0027147D01*
X0403942Y0026958D01*
X0403977Y0026768D01*
X0404008Y0026577D01*
X0404034Y0026386D01*
X0404055Y0026194D01*
X0404072Y0026001D01*
X0404084Y0025808D01*
X0404091Y0025615D01*
X0404093Y0025422D01*
X0404091Y0025229D01*
X0404084Y0025036D01*
X0404072Y0024843D01*
X0404055Y0024650D01*
X0404034Y0024458D01*
X0404008Y0024267D01*
X0403977Y0024076D01*
X0403942Y0023886D01*
X0403902Y0023697D01*
X0403857Y0023509D01*
X0403808Y0023322D01*
X0403754Y0023136D01*
X0403696Y0022952D01*
X0403633Y0022769D01*
X0403565Y0022588D01*
X0403494Y0022409D01*
X0403417Y0022231D01*
X0403337Y0022055D01*
X0403252Y0021882D01*
X0403163Y0021710D01*
X0403070Y0021541D01*
X0402973Y0021374D01*
X0402871Y0021209D01*
X0402766Y0021047D01*
X0402657Y0020888D01*
X0402543Y0020731D01*
X0402426Y0020578D01*
X0402306Y0020427D01*
X0402181Y0020279D01*
X0402053Y0020134D01*
X0401922Y0019993D01*
X0401787Y0019854D01*
X0401648Y0019719D01*
X0401507Y0019588D01*
X0401362Y0019460D01*
X0401214Y0019335D01*
X0401063Y0019215D01*
X0400910Y0019098D01*
X0400753Y0018984D01*
X0400594Y0018875D01*
X0400432Y0018770D01*
X0400267Y0018668D01*
X0400100Y0018571D01*
X0399931Y0018478D01*
X0399759Y0018389D01*
X0399586Y0018304D01*
X0399410Y0018224D01*
X0399232Y0018147D01*
X0399053Y0018076D01*
X0398872Y0018008D01*
X0398689Y0017945D01*
X0398505Y0017887D01*
X0398319Y0017833D01*
X0398132Y0017784D01*
X0397944Y0017739D01*
X0397755Y0017699D01*
X0397565Y0017664D01*
X0397374Y0017633D01*
X0397183Y0017607D01*
X0396991Y0017586D01*
X0396798Y0017569D01*
X0396605Y0017557D01*
X0396412Y0017550D01*
X0396219Y0017548D01*
X0396026Y0017550D01*
X0395833Y0017557D01*
X0395640Y0017569D01*
X0395447Y0017586D01*
X0395255Y0017607D01*
X0395064Y0017633D01*
X0394873Y0017664D01*
X0394683Y0017699D01*
X0394494Y0017739D01*
X0394306Y0017784D01*
X0394119Y0017833D01*
X0393933Y0017887D01*
X0393749Y0017945D01*
X0393566Y0018008D01*
X0393385Y0018076D01*
X0393206Y0018147D01*
X0393028Y0018224D01*
X0392852Y0018304D01*
X0392679Y0018389D01*
X0392507Y0018478D01*
X0392338Y0018571D01*
X0392171Y0018668D01*
X0392006Y0018770D01*
X0391844Y0018875D01*
X0391685Y0018984D01*
X0391528Y0019098D01*
X0391375Y0019215D01*
X0391224Y0019335D01*
X0391076Y0019460D01*
X0390931Y0019588D01*
X0390790Y0019719D01*
X0390651Y0019854D01*
X0390516Y0019993D01*
X0390385Y0020134D01*
X0390257Y0020279D01*
X0390132Y0020427D01*
X0390012Y0020578D01*
X0389895Y0020731D01*
X0389781Y0020888D01*
X0389672Y0021047D01*
X0389567Y0021209D01*
X0389465Y0021374D01*
X0389368Y0021541D01*
X0389275Y0021710D01*
X0389186Y0021882D01*
X0389101Y0022055D01*
X0389021Y0022231D01*
X0388944Y0022409D01*
X0388873Y0022588D01*
X0388805Y0022769D01*
X0388742Y0022952D01*
X0388684Y0023136D01*
X0388630Y0023322D01*
X0388581Y0023509D01*
X0388536Y0023697D01*
X0388496Y0023886D01*
X0388461Y0024076D01*
X0388430Y0024267D01*
X0388404Y0024458D01*
X0388383Y0024650D01*
X0388366Y0024843D01*
X0388354Y0025036D01*
X0388347Y0025229D01*
X0388345Y0025422D01*
D11*
X0384408Y0130973D03*
X0350195Y0299044D03*
X0275392Y0299044D03*
X0200589Y0299044D03*
X0125786Y0299044D03*
D12*
X0095786Y0299044D03*
X0170589Y0299044D03*
X0245392Y0299044D03*
X0320195Y0299044D03*
X0384408Y0100973D03*
D13*
X0319447Y0062824D03*
X0299762Y0062824D03*
X0299762Y0047076D03*
X0319447Y0047076D03*
X0280077Y0047076D03*
X0280077Y0062824D03*
X0260392Y0062824D03*
X0260392Y0047076D03*
X0169841Y0123847D03*
X0169841Y0139595D03*
X0150156Y0139595D03*
X0150156Y0123847D03*
X0130471Y0123847D03*
X0110786Y0123847D03*
X0110786Y0139595D03*
X0130471Y0139595D03*
D14*
X0084723Y0103454D03*
X0084723Y0086918D03*
D15*
X0099762Y0321091D03*
X0121810Y0321091D03*
X0172597Y0320698D03*
X0194644Y0320698D03*
X0249369Y0320698D03*
X0271416Y0320698D03*
X0324172Y0320698D03*
X0346219Y0320698D03*
D16*
X0068503Y0105666D03*
X0068503Y0094469D03*
D17*
X0045727Y0101953D03*
X0045727Y0121953D03*
X0045727Y0080615D03*
X0045727Y0060615D03*
X0086923Y0019615D03*
X0106923Y0019615D03*
X0130231Y0019615D03*
X0150231Y0019615D03*
X0173538Y0019615D03*
X0193538Y0019615D03*
X0216845Y0019615D03*
X0236845Y0019615D03*
X0260152Y0019615D03*
X0280152Y0019615D03*
X0303459Y0019615D03*
X0323459Y0019615D03*
X0049664Y0231559D03*
X0049664Y0251559D03*
X0049664Y0271559D03*
D18*
X0165904Y0083690D03*
X0165904Y0061643D03*
X0240707Y0065973D03*
X0240707Y0043926D03*
D19*
X0213148Y0056721D03*
X0213148Y0084674D03*
X0136377Y0084674D03*
X0136377Y0056721D03*
D20*
X0181652Y0067351D03*
X0189526Y0067351D03*
X0189526Y0074044D03*
X0181652Y0074044D03*
D21*
X0189526Y0074044D01*
X0181652Y0074044D02*
X0181652Y0092351D01*
X0177715Y0096288D01*
X0138345Y0096288D01*
X0136377Y0094320D01*
X0136377Y0084674D01*
X0165904Y0083690D02*
X0165904Y0074635D01*
X0169841Y0070698D01*
X0173778Y0070698D01*
X0177125Y0067351D01*
X0181652Y0067351D01*
X0181652Y0043139D01*
X0191495Y0033296D01*
X0246613Y0033296D01*
X0260152Y0019757D01*
X0260152Y0019615D01*
X0260152Y0038961D02*
X0260392Y0039202D01*
X0260392Y0047076D01*
X0250550Y0051013D02*
X0244644Y0045107D01*
X0241888Y0045107D01*
X0240707Y0043926D01*
X0250550Y0051013D02*
X0250550Y0058887D01*
X0254487Y0062824D01*
X0260392Y0062824D01*
X0280077Y0062824D01*
X0280077Y0070698D01*
X0282046Y0072666D01*
X0368660Y0072666D01*
X0374566Y0078572D01*
X0374566Y0121131D01*
X0384408Y0130973D01*
X0337164Y0062824D02*
X0319447Y0062824D01*
X0299762Y0062824D01*
X0299762Y0047076D02*
X0299762Y0039202D01*
X0303459Y0035505D01*
X0303459Y0019615D01*
X0323459Y0019615D02*
X0323459Y0035190D01*
X0319447Y0039202D01*
X0319447Y0047076D01*
X0280077Y0047076D02*
X0280077Y0039202D01*
X0280152Y0039127D01*
X0240707Y0065973D02*
X0240707Y0072666D01*
X0228896Y0084477D01*
X0213345Y0084477D01*
X0213148Y0084674D01*
X0212951Y0084477D01*
X0203306Y0084477D01*
X0199369Y0080540D01*
X0199369Y0070698D01*
X0196022Y0067351D01*
X0189526Y0067351D01*
X0165904Y0061643D02*
X0165904Y0052981D01*
X0136377Y0056721D02*
X0136377Y0043139D01*
X0084723Y0086918D02*
X0076054Y0086918D01*
X0068503Y0094469D01*
X0059582Y0094469D01*
X0045727Y0080615D01*
X0045727Y0101953D02*
X0053459Y0101953D01*
X0057636Y0106131D01*
X0068038Y0106131D01*
X0068503Y0105666D01*
X0068503Y0118965D01*
X0073384Y0123847D01*
X0110786Y0123847D01*
X0130471Y0123847D01*
X0130471Y0139595D02*
X0130471Y0147469D01*
X0110786Y0147469D02*
X0110786Y0139595D01*
X0150156Y0139595D02*
X0150156Y0147469D01*
X0169841Y0147469D02*
X0169841Y0139595D01*
X0169841Y0123847D02*
X0159999Y0123847D01*
X0150156Y0123847D01*
X0093070Y0104162D02*
X0092361Y0103454D01*
X0084723Y0103454D01*
X0213148Y0056721D02*
X0213148Y0045107D01*
X0200589Y0299044D02*
X0200589Y0301013D01*
X0194644Y0306957D01*
X0194644Y0320698D01*
X0172597Y0320698D02*
X0172597Y0301052D01*
X0170589Y0299044D01*
X0125786Y0299044D02*
X0121810Y0303020D01*
X0121810Y0321091D01*
X0099762Y0321091D02*
X0099762Y0303020D01*
X0095786Y0299044D01*
X0245392Y0299044D02*
X0249369Y0303020D01*
X0249369Y0320698D01*
X0271416Y0320698D02*
X0271416Y0303020D01*
X0275392Y0299044D01*
X0320195Y0299044D02*
X0324172Y0303020D01*
X0324172Y0320698D01*
X0346219Y0320698D02*
X0346219Y0303020D01*
X0350195Y0299044D01*
D22*
X0169841Y0147469D03*
X0150156Y0147469D03*
X0130471Y0147469D03*
X0110786Y0147469D03*
X0159999Y0123847D03*
X0093070Y0104162D03*
X0165904Y0052981D03*
X0136377Y0043139D03*
X0213148Y0045107D03*
X0260392Y0039202D03*
X0280077Y0039202D03*
X0299762Y0039202D03*
X0319447Y0039202D03*
X0337164Y0062824D03*
D23*
X0049762Y0025422D03*
X0049762Y0320698D03*
X0396219Y0320698D03*
M02*
